<svg 
 xmlns="http://www.w3.org/2000/svg"
 xmlns:xlink="http://www.w3.org/1999/xlink"
 width="89px" height="90px">
<path fill-rule="evenodd"  fill="rgb(47, 174, 206)"
 d="M44.129,0.826 C68.455,0.826 88.174,20.603 88.174,45.000 C88.174,69.397 68.455,89.174 44.129,89.174 C19.803,89.174 0.084,69.397 0.084,45.000 C0.084,20.603 19.803,0.826 44.129,0.826 Z"/>
<path fill-rule="evenodd"  fill="rgb(255, 255, 255)"
 d="M69.390,53.488 C69.115,53.750 68.789,53.947 68.423,54.065 C68.149,54.156 67.848,54.209 67.535,54.209 L51.128,54.209 C49.599,54.209 48.371,52.964 48.371,51.445 L48.371,45.300 C48.371,43.768 49.612,42.536 51.128,42.536 L67.522,42.536 C67.835,42.536 68.136,42.588 68.410,42.680 C68.776,42.811 69.102,43.008 69.377,43.257 C69.938,43.768 70.278,44.488 70.291,45.313 L70.291,51.458 C70.291,52.257 69.938,52.990 69.390,53.488 ZM56.875,47.986 C56.875,47.226 56.262,46.610 55.504,46.610 L54.589,46.610 C54.263,46.610 53.975,46.728 53.740,46.912 C53.427,47.161 53.218,47.554 53.218,47.999 L53.218,48.916 C53.218,49.676 53.832,50.292 54.589,50.292 L55.504,50.292 C56.262,50.292 56.875,49.676 56.875,48.916 L56.875,47.986 ZM50.566,40.650 C49.468,40.781 48.502,41.291 47.771,42.038 C46.961,42.877 46.451,44.030 46.451,45.300 L46.451,51.431 C46.451,54.025 48.541,56.122 51.128,56.122 L67.456,56.122 L67.456,63.825 C67.456,65.358 66.215,66.589 64.700,66.589 L37.485,66.589 C38.943,64.768 39.820,62.458 39.820,59.940 C39.820,54.069 35.078,49.309 29.228,49.309 C26.057,49.309 23.220,50.715 21.279,52.930 L21.279,33.090 C21.279,32.842 21.318,32.606 21.383,32.370 C21.488,32.003 21.658,31.662 21.893,31.374 C22.402,30.745 23.173,30.339 24.048,30.339 L64.713,30.339 C66.228,30.339 67.456,31.571 67.456,33.077 L67.456,40.610 L51.128,40.610 C50.932,40.610 50.749,40.623 50.566,40.650 ZM53.009,24.575 L57.594,23.317 C57.842,23.252 58.077,23.212 58.325,23.212 C59.540,23.212 60.651,24.012 60.964,25.256 L61.826,28.413 L38.992,28.413 L53.009,24.575 ZM30.070,28.400 L47.548,19.715 C48.907,19.033 50.553,19.597 51.232,20.959 L52.264,23.055 L32.735,28.400 L30.070,28.400 ZM29.228,51.322 C33.980,51.322 37.833,55.186 37.833,59.953 C37.833,64.719 33.980,68.584 29.228,68.584 C24.475,68.584 20.623,64.719 20.623,59.953 C20.623,55.186 24.475,51.322 29.228,51.322 ZM29.306,65.394 L33.122,60.540 L31.147,60.540 L31.147,55.188 L27.465,55.188 L27.465,60.540 L25.491,60.540 L29.306,65.394 Z"/>
</svg>