<svg 
 xmlns="http://www.w3.org/2000/svg"
 xmlns:xlink="http://www.w3.org/1999/xlink"
 width="89px" height="90px">
<path fill-rule="evenodd"  fill="rgb(246, 46, 80)"
 d="M44.871,0.826 C69.196,0.826 88.916,20.603 88.916,45.000 C88.916,69.397 69.196,89.174 44.871,89.174 C20.545,89.174 0.826,69.397 0.826,45.000 C0.826,20.603 20.545,0.826 44.871,0.826 Z"/>
<path fill-rule="evenodd"  fill="rgb(255, 255, 255)"
 d="M69.131,53.488 C68.857,53.750 68.530,53.947 68.165,54.065 C67.891,54.156 67.590,54.209 67.277,54.209 L50.869,54.209 C49.341,54.209 48.113,52.964 48.113,51.445 L48.113,45.300 C48.113,43.768 49.354,42.536 50.869,42.536 L67.263,42.536 C67.577,42.536 67.878,42.588 68.152,42.680 C68.518,42.811 68.844,43.008 69.119,43.257 C69.680,43.768 70.020,44.488 70.033,45.313 L70.033,51.458 C70.033,52.257 69.680,52.990 69.131,53.488 ZM56.617,47.986 C56.617,47.226 56.003,46.610 55.245,46.610 L54.331,46.610 C54.005,46.610 53.717,46.728 53.482,46.912 C53.168,47.161 52.959,47.554 52.959,47.999 L52.959,48.916 C52.959,49.676 53.574,50.292 54.331,50.292 L55.245,50.292 C56.003,50.292 56.617,49.676 56.617,48.916 L56.617,47.986 ZM50.308,40.650 C49.210,40.781 48.244,41.291 47.512,42.038 C46.702,42.877 46.193,44.030 46.193,45.300 L46.193,51.431 C46.193,54.025 48.283,56.122 50.869,56.122 L67.198,56.122 L67.198,63.825 C67.198,65.358 65.957,66.589 64.442,66.589 L37.227,66.589 C38.685,64.768 39.562,62.458 39.562,59.940 C39.562,54.069 34.820,49.309 28.970,49.309 C25.799,49.309 22.961,50.715 21.020,52.931 L21.020,33.090 C21.020,32.842 21.060,32.606 21.125,32.370 C21.229,32.003 21.399,31.662 21.634,31.374 C22.144,30.745 22.914,30.339 23.790,30.339 L64.455,30.339 C65.970,30.339 67.198,31.571 67.198,33.077 L67.198,40.610 L50.869,40.610 C50.674,40.610 50.491,40.623 50.308,40.650 ZM52.750,24.575 L57.336,23.317 C57.584,23.252 57.819,23.212 58.067,23.212 C59.282,23.212 60.392,24.012 60.706,25.256 L61.568,28.413 L38.734,28.413 L52.750,24.575 ZM29.812,28.400 L47.290,19.715 C48.649,19.033 50.295,19.597 50.974,20.959 L52.006,23.055 L32.477,28.400 L29.812,28.400 ZM28.970,51.322 C33.722,51.322 37.575,55.186 37.575,59.953 C37.575,64.719 33.722,68.584 28.970,68.584 C24.217,68.584 20.365,64.719 20.365,59.953 C20.365,55.186 24.217,51.322 28.970,51.322 ZM27.051,59.687 L27.051,65.261 L30.886,65.261 L30.886,59.687 L32.943,59.687 L28.968,54.631 L24.994,59.687 L27.051,59.687 Z"/>
</svg>