<svg 
 xmlns="http://www.w3.org/2000/svg"
 xmlns:xlink="http://www.w3.org/1999/xlink"
 width="6px" height="6px">
<path fill-rule="evenodd"  fill="rgb(255, 255, 255)"
 d="M3.460,2.995 L5.902,0.552 C6.025,0.429 6.025,0.225 5.902,0.102 L5.888,0.089 C5.765,-0.035 5.562,-0.035 5.439,0.089 L2.997,2.535 L0.555,0.089 C0.431,-0.035 0.228,-0.035 0.105,0.089 L0.091,0.102 C-0.035,0.225 -0.035,0.429 0.091,0.552 L2.534,2.995 L0.091,5.439 C-0.032,5.562 -0.032,5.765 0.091,5.888 L0.105,5.902 C0.228,6.025 0.431,6.025 0.555,5.902 L2.997,3.459 L5.439,5.902 C5.562,6.025 5.765,6.025 5.888,5.902 L5.902,5.888 C6.025,5.765 6.025,5.562 5.902,5.439 L3.460,2.995 Z"/>
</svg>