<svg 
 xmlns="http://www.w3.org/2000/svg"
 xmlns:xlink="http://www.w3.org/1999/xlink"
 width="24px" height="24px">
<path fill-rule="evenodd"  fill="rgb(255, 255, 255)"
 d="M12.113,18.934 C12.234,18.934 12.357,18.927 12.481,18.913 C13.671,18.775 14.681,17.969 15.054,16.859 C15.082,16.776 15.041,16.688 14.959,16.651 C14.878,16.614 14.780,16.646 14.734,16.720 C14.730,16.728 14.257,17.467 12.417,17.708 C12.141,17.743 11.874,17.762 11.620,17.762 C10.330,17.761 9.756,17.291 9.750,17.287 C9.685,17.231 9.587,17.229 9.520,17.284 C9.453,17.338 9.437,17.433 9.483,17.505 C10.045,18.386 11.052,18.934 12.113,18.934 L12.113,18.934 ZM22.007,7.890 C21.991,7.890 21.976,7.893 21.961,7.893 C20.883,3.372 16.763,0.000 11.823,0.000 C6.748,0.000 2.534,3.559 1.600,8.266 C0.691,8.424 -0.000,9.197 -0.000,10.132 L-0.000,13.874 C-0.000,14.923 0.868,15.773 1.941,15.773 C2.545,15.773 3.079,15.497 3.434,15.072 C4.292,17.270 6.039,19.042 8.251,19.977 C8.256,19.966 8.298,19.887 8.348,19.825 C8.383,19.781 8.422,19.745 8.455,19.745 C8.490,19.745 8.522,19.758 8.549,19.776 C8.037,19.407 6.189,17.511 5.788,14.865 C5.613,13.699 6.514,12.556 7.563,12.367 C9.248,12.063 10.923,11.717 12.607,11.419 C13.678,11.230 14.410,10.661 14.858,9.714 C14.962,9.493 15.113,9.045 15.183,8.399 C15.201,8.303 15.283,8.230 15.387,8.230 C15.457,8.230 15.516,8.264 15.555,8.313 L15.601,8.285 C16.265,9.219 17.582,11.286 17.771,13.465 C17.988,15.957 17.867,17.663 15.898,19.409 C15.895,19.411 15.892,19.414 15.889,19.417 C15.862,19.445 15.846,19.482 15.846,19.523 C15.846,19.577 15.875,19.623 15.918,19.651 C15.934,19.657 15.950,19.666 15.967,19.672 C15.980,19.675 15.993,19.679 16.005,19.679 C16.020,19.679 16.032,19.675 16.043,19.672 C16.071,19.658 16.097,19.641 16.125,19.627 C18.117,18.565 19.645,16.790 20.351,14.656 C20.636,15.067 21.084,15.363 21.604,15.466 C20.770,19.138 17.388,21.437 13.197,21.786 C12.946,21.182 12.329,20.754 11.603,20.754 C10.655,20.754 9.886,21.481 9.886,22.378 C9.886,23.273 10.655,24.000 11.603,24.000 C12.367,24.000 13.007,23.525 13.229,22.871 C18.079,22.489 21.968,19.697 22.779,15.359 C23.496,15.069 24.000,14.388 24.000,13.593 L24.000,9.806 C24.000,8.748 23.108,7.890 22.007,7.890 L22.007,7.890 ZM20.218,8.977 C18.953,5.659 15.675,3.289 11.819,3.289 C7.979,3.289 4.712,5.639 3.436,8.936 C3.372,8.861 3.298,8.796 3.225,8.731 C3.948,4.713 7.518,1.658 11.823,1.658 C16.107,1.658 19.667,4.683 20.414,8.673 C20.340,8.769 20.272,8.869 20.218,8.977 L20.218,8.977 ZM8.251,19.977 L8.251,19.977 C8.250,19.979 8.250,19.979 8.251,19.977 L8.251,19.977 Z"/>
</svg>