<svg 
 xmlns="http://www.w3.org/2000/svg"
 xmlns:xlink="http://www.w3.org/1999/xlink"
 width="19px" height="22px">
<path fill-rule="evenodd"  fill="rgb(254, 254, 254)"
 d="M18.830,13.813 C18.830,13.813 18.200,11.436 17.045,9.987 C17.045,9.987 17.675,8.788 16.625,7.136 C16.625,7.136 16.372,0.006 9.504,0.006 C2.636,0.006 2.384,7.135 2.384,7.135 C1.335,8.788 1.964,9.987 1.964,9.987 C0.809,11.436 0.179,13.813 0.179,13.813 C-0.409,16.710 0.704,17.231 0.872,17.276 C1.041,17.321 1.418,16.868 1.544,16.665 C1.670,16.461 1.943,15.805 2.006,15.759 C2.069,15.714 2.174,16.099 2.174,16.099 C2.615,17.570 3.560,18.634 3.560,18.634 C2.615,18.996 1.964,19.697 1.964,19.697 C1.964,19.697 0.767,21.554 3.960,21.916 C7.152,22.278 9.252,21.146 9.252,21.146 L9.756,21.146 C9.756,21.146 11.857,22.278 15.050,21.916 C18.241,21.554 17.045,19.697 17.045,19.697 C17.045,19.697 16.393,18.996 15.448,18.634 C15.448,18.634 16.393,17.570 16.834,16.099 C16.834,16.099 16.940,15.714 17.003,15.759 C17.065,15.805 17.339,16.461 17.465,16.665 C17.590,16.868 17.968,17.321 18.137,17.276 C18.305,17.231 19.418,16.710 18.830,13.813 L18.830,13.813 Z"/>
</svg>