<svg 
 xmlns="http://www.w3.org/2000/svg"
 xmlns:xlink="http://www.w3.org/1999/xlink"
 width="18px" height="18px">
<path fill-rule="evenodd"  fill="rgb(254, 254, 254)"
 d="M17.868,14.986 C17.776,15.547 17.620,16.080 17.284,16.554 C16.625,17.484 15.713,17.994 14.530,17.994 C10.847,17.999 7.169,17.990 3.486,17.999 C1.925,18.004 0.622,16.941 0.245,15.519 C0.006,14.618 -0.055,13.707 0.015,12.787 C0.259,9.461 2.325,6.539 5.392,5.191 C5.429,5.178 5.461,5.159 5.493,5.145 C5.359,5.012 5.231,4.888 5.106,4.754 C4.503,4.115 4.158,3.365 4.043,2.505 C3.914,1.511 4.651,0.780 5.539,0.605 C6.009,0.513 6.469,0.554 6.907,0.747 C6.971,0.775 7.008,0.766 7.058,0.720 C8.135,-0.242 9.857,-0.233 10.930,0.743 C10.986,0.798 11.022,0.780 11.082,0.756 C11.915,0.425 12.703,0.494 13.398,1.060 C13.914,1.483 14.070,1.985 13.932,2.817 C13.858,3.084 13.830,3.204 13.725,3.489 C13.503,4.073 13.085,4.570 12.620,4.998 L12.482,5.122 C12.477,5.127 12.473,5.136 12.473,5.141 C12.744,5.274 13.016,5.394 13.278,5.541 C15.548,6.820 16.998,8.692 17.675,11.121 C18.034,12.396 18.075,13.693 17.868,14.986 ZM10.525,10.215 C10.704,10.022 10.889,9.824 11.068,9.621 C11.253,9.419 11.386,9.281 11.478,9.198 C11.824,8.876 11.902,8.596 11.703,8.352 C11.598,8.209 11.460,8.136 11.294,8.136 C11.128,8.136 10.976,8.200 10.838,8.329 C10.760,8.393 10.631,8.508 10.451,8.678 C10.272,8.849 10.088,9.019 9.908,9.198 C9.696,9.405 9.461,9.640 9.204,9.898 L8.113,8.738 C7.961,8.577 7.855,8.458 7.795,8.375 C7.671,8.264 7.514,8.172 7.316,8.099 C7.118,8.025 6.953,8.071 6.815,8.232 C6.690,8.412 6.662,8.582 6.722,8.752 C6.782,8.922 6.851,9.056 6.925,9.152 L7.266,9.493 C7.431,9.686 7.611,9.898 7.809,10.123 C8.039,10.381 8.288,10.657 8.559,10.946 L8.536,11.452 L6.989,11.452 C6.856,11.452 6.736,11.508 6.639,11.623 C6.543,11.738 6.492,11.857 6.492,11.986 C6.492,12.115 6.538,12.230 6.630,12.326 C6.722,12.423 6.842,12.474 6.994,12.474 L8.541,12.474 L8.541,13.320 L6.994,13.320 C6.861,13.320 6.740,13.366 6.644,13.454 C6.547,13.541 6.497,13.656 6.497,13.803 C6.483,13.932 6.524,14.043 6.621,14.130 C6.718,14.217 6.842,14.263 6.994,14.263 L8.546,14.263 L8.546,14.746 C8.559,14.972 8.628,15.128 8.748,15.216 C8.872,15.303 9.024,15.349 9.204,15.349 C9.384,15.367 9.531,15.308 9.646,15.170 C9.761,15.032 9.816,14.894 9.816,14.746 L9.816,14.263 L11.404,14.263 C11.551,14.263 11.681,14.227 11.777,14.153 C11.874,14.079 11.920,13.960 11.906,13.790 C11.906,13.454 11.694,13.284 11.271,13.284 L9.816,13.284 L9.839,12.460 L11.317,12.437 C11.529,12.451 11.681,12.409 11.772,12.303 C11.865,12.203 11.911,12.078 11.911,11.931 C11.911,11.802 11.860,11.687 11.764,11.581 C11.667,11.475 11.510,11.425 11.299,11.425 L9.820,11.425 L9.820,10.965 C10.079,10.707 10.313,10.459 10.525,10.215 Z"/>
</svg>