<svg 
 xmlns="http://www.w3.org/2000/svg"
 xmlns:xlink="http://www.w3.org/1999/xlink"
 width="17px" height="20px">
<path fill-rule="evenodd"  fill="rgb(254, 254, 254)"
 d="M15.583,2.667 L1.416,2.667 C0.633,2.667 -0.001,2.070 -0.001,1.333 C-0.001,0.596 0.633,0.000 1.416,0.000 L15.583,0.000 C16.366,0.000 16.999,0.596 16.999,1.333 C16.999,2.070 16.366,2.667 15.583,2.667 ZM8.039,4.505 C8.292,4.228 8.707,4.228 8.960,4.505 L16.539,12.828 C16.792,13.106 16.681,13.334 16.291,13.334 L13.458,13.334 C13.068,13.334 12.749,13.633 12.749,14.000 L12.749,19.334 C12.749,19.701 12.431,20.000 12.042,20.000 L4.958,20.000 C4.568,20.000 4.250,19.701 4.250,19.334 L4.250,14.000 C4.250,13.633 3.932,13.334 3.541,13.334 L0.708,13.334 C0.317,13.334 0.207,13.106 0.460,12.828 L8.039,4.505 Z"/>
</svg>