<svg 
 xmlns="http://www.w3.org/2000/svg"
 xmlns:xlink="http://www.w3.org/1999/xlink"
 width="24px" height="19px">
<path fill-rule="evenodd"  fill="rgb(255, 255, 255)"
 d="M16.287,5.741 C16.564,5.741 16.837,5.760 17.108,5.790 C16.371,2.468 12.702,0.000 8.514,0.000 C3.834,0.000 -0.000,3.089 -0.000,7.011 C-0.000,9.276 1.275,11.134 3.408,12.577 L2.556,15.056 L5.533,13.611 C6.598,13.815 7.453,14.025 8.514,14.025 C8.783,14.025 9.047,14.012 9.310,13.993 C9.144,13.442 9.047,12.865 9.047,12.266 C9.047,8.663 12.242,5.741 16.287,5.741 L16.287,5.741 ZM11.649,3.338 C12.376,3.338 12.965,3.909 12.965,4.613 C12.965,5.317 12.376,5.888 11.649,5.888 C10.922,5.888 10.332,5.316 10.332,4.613 C10.332,3.909 10.922,3.338 11.649,3.338 L11.649,3.338 ZM5.691,5.914 C4.964,5.914 4.375,5.343 4.375,4.639 C4.375,3.935 4.964,3.364 5.691,3.364 C6.418,3.364 7.007,3.935 7.007,4.639 C7.007,5.343 6.418,5.914 5.691,5.914 L5.691,5.914 ZM24.000,12.193 C24.000,8.897 20.594,6.210 16.766,6.210 C12.715,6.210 9.524,8.897 9.524,12.193 C9.524,15.495 12.715,18.175 16.766,18.175 C17.614,18.175 18.470,17.968 19.322,17.761 L21.657,19.000 L21.017,16.940 C22.727,15.699 24.000,14.052 24.000,12.193 L24.000,12.193 ZM14.541,11.268 C14.023,11.268 13.603,10.863 13.603,10.361 C13.603,9.860 14.023,9.453 14.541,9.453 C15.059,9.453 15.478,9.860 15.478,10.361 C15.478,10.863 15.059,11.268 14.541,11.268 L14.541,11.268 ZM19.223,11.321 C18.704,11.321 18.285,10.914 18.285,10.413 C18.285,9.912 18.704,9.505 19.223,9.505 C19.740,9.505 20.160,9.912 20.160,10.413 C20.160,10.914 19.740,11.321 19.223,11.321 L19.223,11.321 Z"/>
</svg>