<svg 
 xmlns="http://www.w3.org/2000/svg"
 xmlns:xlink="http://www.w3.org/1999/xlink"
 width="32px" height="32px">
<path fill-rule="evenodd"  fill="rgb(255, 255, 255)"
 d="M23.309,32.010 C21.263,32.010 18.622,30.634 16.767,29.479 C14.282,27.933 11.605,25.794 9.229,23.456 L9.221,23.448 L8.466,22.686 C6.151,20.287 4.033,17.583 2.502,15.074 C1.358,13.200 -0.005,10.533 -0.005,8.468 C-0.005,6.257 1.561,3.910 2.234,3.004 C2.759,2.297 4.594,-0.010 6.153,-0.010 C6.793,-0.010 7.483,0.413 8.389,1.362 C9.190,2.201 9.959,3.244 10.463,3.971 C11.140,4.947 11.766,5.969 12.226,6.849 C12.970,8.274 13.057,8.885 13.057,9.221 C13.057,9.898 12.706,10.486 12.015,10.967 C11.560,11.284 11.014,11.522 10.486,11.753 C10.130,11.909 9.562,12.157 9.345,12.331 C9.420,12.655 9.751,13.437 10.645,14.762 C11.478,15.997 12.555,17.335 13.528,18.345 C14.527,19.327 15.853,20.415 17.076,21.256 C18.388,22.159 19.162,22.493 19.483,22.569 C19.655,22.350 19.901,21.776 20.055,21.417 C20.284,20.883 20.520,20.332 20.834,19.872 C21.311,19.175 21.892,18.821 22.563,18.821 C22.896,18.821 23.501,18.908 24.912,19.660 C25.783,20.124 26.795,20.756 27.762,21.440 C28.482,21.949 29.515,22.726 30.346,23.535 C31.285,24.450 31.704,25.146 31.704,25.792 C31.704,27.367 29.420,29.220 28.719,29.750 C27.822,30.430 25.498,32.010 23.309,32.010 L23.309,32.010 M10.540,22.106 C12.819,24.348 15.379,26.395 17.749,27.870 C20.047,29.300 22.073,30.120 23.309,30.120 C24.410,30.120 25.979,29.441 27.507,28.304 C28.177,27.805 28.787,27.250 29.224,26.740 C29.634,26.262 29.784,25.950 29.822,25.824 C29.664,25.480 28.722,24.405 26.524,22.874 C25.662,22.273 24.771,21.721 24.015,21.320 C23.065,20.816 22.669,20.729 22.579,20.714 C22.543,20.739 22.440,20.826 22.283,21.092 C22.107,21.390 21.937,21.785 21.774,22.167 C21.573,22.637 21.364,23.123 21.109,23.516 C20.693,24.154 20.183,24.478 19.592,24.478 C19.582,24.478 19.571,24.478 19.559,24.477 C19.272,24.471 18.397,24.453 16.022,22.819 C14.710,21.917 13.286,20.747 12.213,19.690 L12.196,19.673 C11.149,18.589 9.991,17.151 9.097,15.827 C7.479,13.428 7.461,12.544 7.454,12.254 C7.442,11.647 7.759,11.123 8.397,10.696 C8.788,10.435 9.273,10.223 9.743,10.017 C10.121,9.852 10.512,9.682 10.807,9.504 C11.071,9.345 11.157,9.241 11.181,9.205 C11.167,9.114 11.081,8.714 10.582,7.755 C10.184,6.991 9.637,6.091 9.043,5.221 C7.527,3.001 6.462,2.050 6.121,1.890 C5.996,1.929 5.687,2.080 5.214,2.494 C4.709,2.935 4.159,3.551 3.666,4.228 C2.540,5.771 1.868,7.356 1.868,8.467 C1.868,9.715 2.680,11.762 4.095,14.082 C5.556,16.475 7.582,19.060 9.803,21.362 L10.540,22.106 M21.683,15.322 C21.356,15.322 21.066,15.086 21.008,14.749 C20.840,13.788 20.288,12.952 19.455,12.397 C18.610,11.833 17.577,11.624 16.546,11.808 C16.173,11.874 15.817,11.623 15.751,11.246 C15.685,10.869 15.935,10.509 16.308,10.443 C17.686,10.198 19.072,10.481 20.211,11.240 C21.362,12.008 22.125,13.168 22.359,14.509 C22.425,14.886 22.176,15.245 21.803,15.311 C21.762,15.318 21.722,15.322 21.683,15.322 L21.683,15.322 M25.813,13.533 C25.487,13.533 25.197,13.296 25.139,12.960 C24.813,11.094 23.745,9.474 22.132,8.399 C20.507,7.316 18.523,6.913 16.546,7.265 C16.173,7.332 15.817,7.080 15.751,6.703 C15.685,6.327 15.935,5.967 16.308,5.901 C18.632,5.487 20.969,5.963 22.888,7.243 C24.819,8.530 26.098,10.475 26.490,12.720 C26.556,13.096 26.307,13.456 25.933,13.522 C25.893,13.529 25.853,13.533 25.813,13.533 L25.813,13.533 M31.328,13.016 C31.002,13.016 30.712,12.780 30.653,12.443 C30.097,9.259 28.277,6.496 25.527,4.663 C22.765,2.822 19.396,2.138 16.039,2.735 C15.666,2.802 15.310,2.550 15.245,2.173 C15.179,1.796 15.428,1.437 15.801,1.371 C19.505,0.711 23.227,1.470 26.283,3.506 C29.351,5.551 31.383,8.639 32.005,12.203 C32.071,12.580 31.821,12.939 31.448,13.006 C31.408,13.013 31.368,13.016 31.328,13.016 L31.328,13.016 "/>
</svg>