<svg 
 xmlns="http://www.w3.org/2000/svg"
 xmlns:xlink="http://www.w3.org/1999/xlink"
 width="31px" height="34px">
<path fill-rule="evenodd"  fill="rgb(255, 255, 255)"
 d="M30.378,12.008 C29.844,17.764 27.979,22.980 24.333,27.453 C22.102,30.190 19.389,32.290 16.214,33.759 C15.610,34.039 15.015,34.022 14.412,33.742 C11.539,32.407 9.043,30.542 6.924,28.150 C4.165,25.036 2.321,21.410 1.228,17.371 C0.503,14.691 0.163,11.956 0.133,9.174 C0.173,8.380 0.198,7.585 0.257,6.792 C0.331,5.803 1.135,5.006 2.102,4.942 C2.960,4.885 3.822,4.872 4.675,4.778 C8.087,4.401 11.238,3.250 14.132,1.361 C14.717,0.979 15.327,0.855 15.988,1.084 C16.164,1.145 16.334,1.239 16.492,1.342 C19.070,3.028 21.869,4.124 24.885,4.633 C26.025,4.826 27.174,4.915 28.329,4.932 C29.553,4.949 30.348,5.770 30.433,7.026 C30.546,8.689 30.532,10.350 30.378,12.008 ZM28.441,7.572 C28.433,7.389 28.411,7.206 28.394,7.018 C28.322,7.013 28.267,7.007 28.212,7.006 C26.938,6.986 25.671,6.878 24.415,6.658 C21.216,6.096 18.242,4.932 15.501,3.147 C15.381,3.069 15.297,3.059 15.168,3.141 C14.662,3.458 14.154,3.776 13.631,4.063 C10.603,5.726 7.374,6.686 3.946,6.934 C3.396,6.974 2.844,6.994 2.258,7.024 C2.236,7.418 2.205,7.803 2.195,8.189 C2.141,10.114 2.255,12.027 2.562,13.928 C3.051,16.964 3.978,19.846 5.457,22.529 C7.734,26.662 10.923,29.800 15.143,31.805 C15.275,31.867 15.380,31.871 15.514,31.808 C19.342,29.996 22.358,27.234 24.588,23.584 C27.582,18.686 28.688,13.297 28.441,7.572 ZM21.980,14.095 C19.370,16.771 16.760,19.446 14.150,22.122 C13.577,22.709 13.038,22.708 12.462,22.118 C11.171,20.797 9.879,19.476 8.589,18.152 C8.167,17.720 8.137,17.104 8.508,16.684 C8.901,16.239 9.553,16.220 9.984,16.654 C10.602,17.277 11.213,17.907 11.826,18.536 C12.314,19.037 12.800,19.540 13.318,20.075 C13.393,19.984 13.438,19.919 13.492,19.863 C15.860,17.435 18.229,15.009 20.594,12.579 C20.856,12.310 21.149,12.147 21.529,12.204 C21.923,12.262 22.196,12.486 22.338,12.865 C22.481,13.247 22.405,13.596 22.154,13.909 C22.101,13.975 22.039,14.034 21.980,14.095 Z"/>
</svg>