<svg 
 xmlns="http://www.w3.org/2000/svg"
 xmlns:xlink="http://www.w3.org/1999/xlink"
 width="35px" height="35px">
<path fill-rule="evenodd"  stroke="rgb(255, 255, 255)" stroke-width="2px" stroke-linecap="butt" stroke-linejoin="miter" fill="none"
 d="M5.000,1.000 L29.000,1.000 C31.209,1.000 33.000,2.791 33.000,5.000 L33.000,29.000 C33.000,31.209 31.209,33.000 29.000,33.000 L5.000,33.000 C2.791,33.000 1.000,31.209 1.000,29.000 L1.000,5.000 C1.000,2.791 2.791,1.000 5.000,1.000 Z"/>
<path fill-rule="evenodd"  fill="rgb(255, 255, 255)"
 d="M9.000,13.000 L25.000,13.000 C25.552,13.000 26.000,13.448 26.000,14.000 C26.000,14.552 25.552,15.000 25.000,15.000 L9.000,15.000 C8.448,15.000 8.000,14.552 8.000,14.000 C8.000,13.448 8.448,13.000 9.000,13.000 Z"/>
<path fill-rule="evenodd"  fill="rgb(255, 255, 255)"
 d="M9.036,12.134 L15.964,8.134 C16.442,7.858 17.054,8.022 17.330,8.500 C17.606,8.978 17.442,9.590 16.964,9.866 L10.036,13.866 C9.558,14.142 8.946,13.978 8.670,13.500 C8.394,13.022 8.558,12.410 9.036,12.134 Z"/>
<path fill-rule="evenodd"  fill="rgb(255, 255, 255)"
 d="M17.036,22.134 L23.964,18.134 C24.442,17.858 25.054,18.022 25.330,18.500 C25.606,18.978 25.442,19.590 24.964,19.866 L18.036,23.866 C17.558,24.142 16.946,23.978 16.670,23.500 C16.394,23.022 16.558,22.410 17.036,22.134 Z"/>
<path fill-rule="evenodd"  fill="rgb(255, 255, 255)"
 d="M9.000,17.000 L25.000,17.000 C25.552,17.000 26.000,17.448 26.000,18.000 C26.000,18.552 25.552,19.000 25.000,19.000 L9.000,19.000 C8.448,19.000 8.000,18.552 8.000,18.000 C8.000,17.448 8.448,17.000 9.000,17.000 Z"/>
</svg>