<svg 
 xmlns="http://www.w3.org/2000/svg"
 xmlns:xlink="http://www.w3.org/1999/xlink"
 width="36px" height="36px">
<path fill-rule="evenodd"  stroke="rgb(0, 0, 0)" stroke-width="2px" stroke-linecap="round" stroke-linejoin="miter" fill="none"
 d="M17.500,1.000 C26.613,1.000 34.000,8.387 34.000,17.500 C34.000,26.613 26.613,34.000 17.500,34.000 C8.387,34.000 1.000,26.613 1.000,17.500 C1.000,8.387 8.387,1.000 17.500,1.000 Z"/>
<path fill-rule="evenodd"  fill="rgb(25, 28, 38)"
 d="M21.916,9.438 C22.869,10.285 23.292,11.343 23.292,12.719 C23.292,13.883 22.974,14.836 22.445,15.577 C22.234,15.894 21.599,16.423 20.434,17.376 C20.011,17.799 19.693,18.117 19.482,18.540 C19.270,18.964 19.058,19.493 19.058,20.128 L19.058,20.551 L16.518,20.551 L16.518,20.128 C16.518,19.281 16.624,18.540 16.942,17.905 C17.259,17.270 18.106,16.318 19.588,15.047 L20.011,14.624 C20.434,14.095 20.646,13.566 20.646,12.931 C20.646,12.190 20.434,11.555 20.011,11.026 C19.588,10.602 18.847,10.285 18.106,10.285 C17.047,10.285 16.307,10.602 15.777,11.237 C15.354,11.766 15.142,12.613 15.142,13.672 L12.708,13.672 C12.708,11.978 13.237,10.602 14.190,9.650 C15.142,8.697 16.518,8.168 18.212,8.168 C19.799,8.168 20.964,8.591 21.916,9.438 ZM19.058,22.245 C19.376,22.562 19.588,22.985 19.588,23.409 C19.588,23.938 19.376,24.256 19.058,24.573 C18.741,24.891 18.318,24.996 17.788,24.996 C17.259,24.996 16.942,24.785 16.624,24.467 C16.307,24.150 16.095,23.726 16.095,23.303 C16.095,22.774 16.307,22.456 16.624,22.139 C16.942,21.821 17.365,21.715 17.788,21.715 C18.318,21.821 18.741,21.927 19.058,22.245 Z"/>
</svg>