<svg 
 xmlns="http://www.w3.org/2000/svg"
 xmlns:xlink="http://www.w3.org/1999/xlink"
 width="35px" height="40px">
<path fill-rule="evenodd"  fill="rgb(255, 255, 255)"
 d="M7.000,7.000 L27.000,7.000 C27.552,7.000 28.000,7.448 28.000,8.000 C28.000,8.552 27.552,9.000 27.000,9.000 L7.000,9.000 C6.448,9.000 6.000,8.552 6.000,8.000 C6.000,7.448 6.448,7.000 7.000,7.000 Z"/>
<path fill-rule="evenodd"  fill="rgb(255, 255, 255)"
 d="M7.000,12.000 L16.000,12.000 C16.552,12.000 17.000,12.448 17.000,13.000 C17.000,13.552 16.552,14.000 16.000,14.000 L7.000,14.000 C6.448,14.000 6.000,13.552 6.000,13.000 C6.000,12.448 6.448,12.000 7.000,12.000 Z"/>
<path fill-rule="evenodd"  stroke="rgb(255, 255, 255)" stroke-width="2px" stroke-linecap="butt" stroke-linejoin="miter" fill="none"
 d="M17.000,13.000 C22.523,13.000 27.000,17.477 27.000,23.000 C27.000,28.523 22.523,33.000 17.000,33.000 C11.477,33.000 7.000,28.523 7.000,23.000 C7.000,17.477 11.477,13.000 17.000,13.000 Z"/>
<path fill-rule="evenodd"  fill="rgb(255, 255, 255)"
 d="M17.303,16.715 L18.786,21.275 L23.585,21.275 L19.698,24.099 L21.183,28.665 L17.303,25.848 L13.421,28.665 L14.903,24.099 L11.021,21.275 L15.820,21.275 L17.303,16.715 Z"/>
<path fill-rule="evenodd"  stroke="rgb(255, 255, 255)" stroke-width="2px" stroke-linecap="butt" stroke-linejoin="miter" fill="none"
 d="M5.000,1.000 L29.000,1.000 C31.209,1.000 33.000,2.791 33.000,5.000 L33.000,34.000 C33.000,36.209 31.209,38.000 29.000,38.000 L5.000,38.000 C2.791,38.000 1.000,36.209 1.000,34.000 L1.000,5.000 C1.000,2.791 2.791,1.000 5.000,1.000 Z"/>
</svg>