<svg 
 xmlns="http://www.w3.org/2000/svg"
 xmlns:xlink="http://www.w3.org/1999/xlink"
 width="29px" height="36px">
<path fill-rule="evenodd"  fill="rgb(25, 28, 38)"
 d="M24.781,36.006 L4.219,36.006 C1.896,36.006 0.013,34.018 0.013,31.566 L0.013,9.464 C0.013,7.012 1.896,5.024 4.219,5.024 L6.890,5.024 L6.890,3.480 C6.890,3.235 7.078,3.037 7.310,3.037 L10.257,3.037 C10.440,3.037 10.604,2.911 10.656,2.725 C11.187,0.843 12.498,-0.006 14.514,-0.006 C16.530,-0.006 17.708,0.841 18.225,2.721 C18.276,2.909 18.441,3.037 18.626,3.037 L21.603,3.037 C21.835,3.037 22.023,3.235 22.023,3.480 L22.023,5.024 L24.781,5.024 C27.104,5.024 28.987,7.012 28.987,9.464 L28.987,31.566 C28.987,34.018 27.104,36.006 24.781,36.006 ZM20.152,4.999 L20.000,5.000 L16.830,5.000 C16.598,5.000 16.410,4.802 16.410,4.557 C16.410,3.141 15.914,1.991 14.578,1.991 C13.241,1.991 12.598,3.141 12.598,4.557 L12.598,4.558 C12.598,4.803 12.410,5.001 12.179,5.001 L9.000,5.000 L9.000,10.000 L20.000,10.000 L20.000,5.000 L20.152,5.000 L20.152,4.999 ZM27.094,10.464 C27.094,8.563 25.634,7.023 23.834,7.023 L22.022,7.023 L22.022,11.470 C22.022,11.714 21.836,11.911 21.605,11.913 L7.312,12.022 C7.079,12.024 6.889,11.826 6.889,11.580 L6.889,7.023 L5.166,7.023 C3.366,7.023 1.906,8.563 1.906,10.464 L1.906,30.566 C1.906,32.467 3.366,34.008 5.166,34.008 L23.834,34.008 C25.634,34.008 27.094,32.467 27.094,30.566 L27.094,10.464 ZM21.585,29.033 L7.385,29.033 C7.124,29.033 6.911,28.808 6.911,28.534 L6.911,27.534 C6.911,27.259 7.124,27.034 7.385,27.034 L21.585,27.034 C21.848,27.034 22.058,27.259 22.058,27.534 L22.058,28.534 C22.058,28.808 21.845,29.033 21.585,29.033 ZM21.585,24.036 L7.385,24.036 C7.124,24.036 6.911,23.812 6.911,23.536 L6.911,22.537 C6.911,22.262 7.124,22.037 7.385,22.037 L21.585,22.037 C21.845,22.037 22.058,22.262 22.058,22.537 L22.058,23.536 C22.058,23.812 21.845,24.036 21.585,24.036 ZM21.585,19.040 L7.385,19.040 C7.124,19.040 6.911,18.815 6.911,18.540 L6.911,17.541 C6.911,17.265 7.124,17.041 7.385,17.041 L21.585,17.041 C21.845,17.041 22.058,17.265 22.058,17.541 L22.058,18.540 C22.058,18.815 21.845,19.040 21.585,19.040 Z"/>
</svg>