<svg 
 xmlns="http://www.w3.org/2000/svg"
 xmlns:xlink="http://www.w3.org/1999/xlink"
 width="37px" height="36px">
<path fill-rule="evenodd"  stroke="rgb(25, 28, 38)" stroke-width="2px" stroke-linecap="round" stroke-linejoin="miter" fill="none"
 d="M33.000,18.000 C33.000,26.837 25.836,34.000 17.000,34.000 C8.163,34.000 1.000,26.837 1.000,18.000 C1.000,9.163 8.163,2.000 17.000,2.000 C17.858,2.000 18.700,2.068 19.521,2.197 "/>
<path fill-rule="evenodd"  fill="rgb(25, 28, 38)"
 d="M13.000,16.000 L21.000,16.000 C21.552,16.000 22.000,16.448 22.000,17.000 C22.000,17.552 21.552,18.000 21.000,18.000 L13.000,18.000 C12.448,18.000 12.000,17.552 12.000,17.000 C12.000,16.448 12.448,16.000 13.000,16.000 Z"/>
<path fill-rule="evenodd"  fill="rgb(25, 28, 38)"
 d="M27.000,5.000 L35.000,5.000 C35.552,5.000 36.000,5.448 36.000,6.000 C36.000,6.552 35.552,7.000 35.000,7.000 L27.000,7.000 C26.448,7.000 26.000,6.552 26.000,6.000 C26.000,5.448 26.448,5.000 27.000,5.000 Z"/>
<path fill-rule="evenodd"  fill="rgb(25, 28, 38)"
 d="M13.000,20.000 L21.000,20.000 C21.552,20.000 22.000,20.448 22.000,21.000 C22.000,21.552 21.552,22.000 21.000,22.000 L13.000,22.000 C12.448,22.000 12.000,21.552 12.000,21.000 C12.000,20.448 12.448,20.000 13.000,20.000 Z"/>
<path fill-rule="evenodd"  fill="rgb(25, 28, 38)"
 d="M16.000,15.000 L18.000,15.000 L18.000,25.000 C18.000,25.552 17.552,26.000 17.000,26.000 C16.448,26.000 16.000,25.552 16.000,25.000 L16.000,15.000 Z"/>
<path fill-rule="evenodd"  fill="rgb(25, 28, 38)"
 d="M16.172,14.414 L20.414,10.172 C20.805,9.781 21.438,9.781 21.828,10.172 C22.219,10.562 22.219,11.195 21.828,11.586 L17.586,15.828 C17.195,16.219 16.562,16.219 16.172,15.828 C15.781,15.438 15.781,14.805 16.172,14.414 Z"/>
<path fill-rule="evenodd"  fill="rgb(25, 28, 38)"
 d="M25.172,5.414 L29.414,1.172 C29.805,0.781 30.438,0.781 30.829,1.172 C31.219,1.562 31.219,2.195 30.829,2.586 L26.586,6.828 C26.195,7.219 25.562,7.219 25.172,6.828 C24.781,6.438 24.781,5.805 25.172,5.414 Z"/>
<path fill-rule="evenodd"  fill="rgb(25, 28, 38)"
 d="M17.702,14.144 L13.866,10.331 C13.443,9.909 12.756,9.909 12.332,10.331 C11.909,10.752 11.909,11.435 12.332,11.856 L16.168,15.670 C16.591,16.091 17.278,16.091 17.702,15.670 C18.125,15.248 18.125,14.565 17.702,14.144 Z"/>
<path fill-rule="evenodd"  fill="rgb(25, 28, 38)"
 d="M30.701,9.144 L26.867,5.330 C26.443,4.909 25.756,4.909 25.332,5.330 C24.909,5.752 24.909,6.435 25.332,6.856 L29.167,10.669 C29.591,11.091 30.278,11.091 30.701,10.669 C31.125,10.248 31.125,9.565 30.701,9.144 Z"/>
</svg>