<svg 
 xmlns="http://www.w3.org/2000/svg"
 xmlns:xlink="http://www.w3.org/1999/xlink"
 width="34px" height="34px">
<path fill-rule="evenodd"  fill="rgb(25, 28, 38)"
 d="M26.320,33.991 C22.077,33.991 18.625,30.460 18.625,26.119 C18.625,21.778 22.077,18.247 26.320,18.247 C30.563,18.247 34.015,21.778 34.015,26.119 C34.015,30.460 30.563,33.991 26.320,33.991 ZM26.320,20.074 C23.062,20.074 20.411,22.786 20.411,26.119 C20.411,29.452 23.062,32.164 26.320,32.164 C29.578,32.164 32.229,29.452 32.229,26.119 C32.229,22.786 29.579,20.074 26.320,20.074 ZM30.469,24.528 L25.703,29.403 C25.701,29.404 25.701,29.406 25.699,29.408 C25.531,29.581 25.303,29.677 25.065,29.677 C24.947,29.677 24.830,29.653 24.723,29.607 C24.612,29.561 24.514,29.492 24.431,29.406 L22.171,27.096 C21.823,26.739 21.823,26.161 22.171,25.804 C22.520,25.447 23.085,25.447 23.434,25.804 L25.065,27.472 L29.206,23.236 C29.555,22.880 30.121,22.880 30.469,23.236 C30.818,23.593 30.818,24.172 30.469,24.528 ZM26.841,15.923 C26.348,15.923 25.948,15.514 25.948,15.009 L25.948,6.014 C25.946,3.708 24.119,1.839 21.865,1.836 L5.886,1.836 C3.631,1.838 1.804,3.708 1.802,6.014 L1.802,27.987 C1.804,30.293 3.632,32.162 5.886,32.164 L17.826,32.164 C18.319,32.164 18.719,32.573 18.719,33.077 C18.719,33.582 18.319,33.991 17.826,33.991 L5.886,33.991 C2.646,33.988 0.019,31.301 0.016,27.987 L0.016,6.014 C0.019,2.699 2.645,0.012 5.886,0.009 L21.865,0.009 C25.105,0.013 27.731,2.699 27.735,6.014 L27.735,15.009 C27.735,15.514 27.335,15.923 26.841,15.923 Z"/>
<path fill-rule="evenodd"  fill="rgb(25, 28, 38)"
 d="M5.000,8.000 L7.000,8.000 C7.552,8.000 8.000,8.448 8.000,9.000 C8.000,9.552 7.552,10.000 7.000,10.000 L5.000,10.000 C4.448,10.000 4.000,9.552 4.000,9.000 C4.000,8.448 4.448,8.000 5.000,8.000 Z"/>
<path fill-rule="evenodd"  fill="rgb(25, 28, 38)"
 d="M11.000,8.000 L22.000,8.000 C22.552,8.000 23.000,8.448 23.000,9.000 C23.000,9.552 22.552,10.000 22.000,10.000 L11.000,10.000 C10.448,10.000 10.000,9.552 10.000,9.000 C10.000,8.448 10.448,8.000 11.000,8.000 Z"/>
<path fill-rule="evenodd"  fill="rgb(25, 28, 38)"
 d="M5.000,16.000 L7.000,16.000 C7.552,16.000 8.000,16.448 8.000,17.000 C8.000,17.552 7.552,18.000 7.000,18.000 L5.000,18.000 C4.448,18.000 4.000,17.552 4.000,17.000 C4.000,16.448 4.448,16.000 5.000,16.000 Z"/>
<path fill-rule="evenodd"  fill="rgb(25, 28, 38)"
 d="M11.000,16.000 L22.000,16.000 C22.552,16.000 23.000,16.448 23.000,17.000 C23.000,17.552 22.552,18.000 22.000,18.000 L11.000,18.000 C10.448,18.000 10.000,17.552 10.000,17.000 C10.000,16.448 10.448,16.000 11.000,16.000 Z"/>
<path fill-rule="evenodd"  fill="rgb(25, 28, 38)"
 d="M5.000,24.000 L7.000,24.000 C7.552,24.000 8.000,24.448 8.000,25.000 C8.000,25.552 7.552,26.000 7.000,26.000 L5.000,26.000 C4.448,26.000 4.000,25.552 4.000,25.000 C4.000,24.448 4.448,24.000 5.000,24.000 Z"/>
<path fill-rule="evenodd"  fill="rgb(25, 28, 38)"
 d="M11.000,24.000 L16.000,24.000 C16.552,24.000 17.000,24.448 17.000,25.000 C17.000,25.552 16.552,26.000 16.000,26.000 L11.000,26.000 C10.448,26.000 10.000,25.552 10.000,25.000 C10.000,24.448 10.448,24.000 11.000,24.000 Z"/>
</svg>