<svg 
 xmlns="http://www.w3.org/2000/svg"
 xmlns:xlink="http://www.w3.org/1999/xlink"
 width="36px" height="35px">
<path fill-rule="evenodd"  stroke="rgb(25, 28, 38)" stroke-width="2px" stroke-linecap="round" stroke-linejoin="miter" fill="none"
 d="M33.000,17.000 C33.000,8.163 25.836,1.000 17.000,1.000 C8.163,1.000 1.000,8.163 1.000,17.000 C1.000,25.837 8.163,33.000 17.000,33.000 C17.858,33.000 18.700,32.933 19.521,32.803 "/>
<path fill-rule="evenodd"  fill="rgb(25, 28, 38)"
 d="M13.000,15.000 L21.000,15.000 C21.552,15.000 22.000,15.448 22.000,16.000 C22.000,16.552 21.552,17.000 21.000,17.000 L13.000,17.000 C12.448,17.000 12.000,16.552 12.000,16.000 C12.000,15.448 12.448,15.000 13.000,15.000 Z"/>
<path fill-rule="evenodd"  fill="rgb(25, 28, 38)"
 d="M26.000,24.000 L34.000,24.000 C34.552,24.000 35.000,24.448 35.000,25.000 C35.000,25.552 34.552,26.000 34.000,26.000 L26.000,26.000 C25.448,26.000 25.000,25.552 25.000,25.000 C25.000,24.448 25.448,24.000 26.000,24.000 Z"/>
<path fill-rule="evenodd"  fill="rgb(25, 28, 38)"
 d="M13.000,19.000 L21.000,19.000 C21.552,19.000 22.000,19.448 22.000,20.000 C22.000,20.552 21.552,21.000 21.000,21.000 L13.000,21.000 C12.448,21.000 12.000,20.552 12.000,20.000 C12.000,19.448 12.448,19.000 13.000,19.000 Z"/>
<path fill-rule="evenodd"  fill="rgb(25, 28, 38)"
 d="M16.000,14.000 L18.000,14.000 L18.000,24.000 C18.000,24.552 17.552,25.000 17.000,25.000 C16.448,25.000 16.000,24.552 16.000,24.000 L16.000,14.000 Z"/>
<path fill-rule="evenodd"  fill="rgb(25, 28, 38)"
 d="M16.172,13.414 L20.414,9.172 C20.805,8.781 21.438,8.781 21.828,9.172 C22.219,9.562 22.219,10.195 21.828,10.586 L17.586,14.828 C17.195,15.219 16.562,15.219 16.172,14.828 C15.781,14.438 15.781,13.805 16.172,13.414 Z"/>
<path fill-rule="evenodd"  fill="rgb(25, 28, 38)"
 d="M17.702,13.144 L13.866,9.330 C13.443,8.909 12.756,8.909 12.332,9.330 C11.909,9.752 11.909,10.435 12.332,10.856 L16.168,14.670 C16.591,15.091 17.278,15.091 17.702,14.670 C18.125,14.248 18.125,13.565 17.702,13.144 Z"/>
</svg>