<svg 
 xmlns="http://www.w3.org/2000/svg"
 xmlns:xlink="http://www.w3.org/1999/xlink"
 width="43px" height="33px">
<path fill-rule="evenodd"  fill="rgb(0, 0, 0)"
 d="M41.366,28.040 C40.732,28.040 40.214,27.510 40.214,26.855 C40.214,24.161 39.194,21.627 37.340,19.721 C35.581,17.913 33.272,16.876 30.802,16.775 C30.669,16.782 30.536,16.786 30.402,16.786 C29.767,16.786 29.249,16.256 29.249,15.601 L29.249,15.581 C29.249,14.927 29.765,14.396 30.402,14.396 C30.525,14.396 30.648,14.399 30.771,14.403 C33.377,14.207 35.439,11.965 35.439,9.237 C35.439,6.380 33.179,4.057 30.402,4.057 C29.767,4.057 29.249,3.527 29.249,2.873 C29.249,2.218 29.765,1.688 30.402,1.688 C34.448,1.688 37.742,5.074 37.742,9.237 C37.750,11.584 36.676,13.803 34.831,15.252 C36.389,15.885 37.799,16.836 38.968,18.046 C41.257,20.398 42.517,23.527 42.519,26.855 C42.519,27.510 42.001,28.040 41.366,28.040 ZM26.490,17.022 C26.782,17.125 27.069,17.236 27.353,17.357 C29.115,18.110 30.712,19.198 32.057,20.561 L32.053,20.561 C34.837,23.374 36.396,27.174 36.388,31.133 C36.408,31.554 36.195,31.953 35.833,32.170 C35.470,32.387 35.018,32.387 34.656,32.170 C34.293,31.953 34.080,31.554 34.100,31.133 C34.100,27.757 32.799,24.584 30.436,22.197 C28.190,19.929 25.241,18.629 22.085,18.507 C21.921,18.516 21.756,18.521 21.590,18.521 C21.424,18.521 21.259,18.516 21.095,18.507 C17.939,18.629 14.989,19.929 12.744,22.197 C10.381,24.584 9.080,27.757 9.080,31.133 C9.100,31.554 8.886,31.953 8.524,32.170 C8.162,32.387 7.710,32.387 7.347,32.170 C6.985,31.953 6.771,31.554 6.792,31.133 C6.784,27.174 8.342,23.374 11.127,20.561 C12.472,19.198 14.070,18.109 15.831,17.357 C16.115,17.236 16.402,17.125 16.692,17.022 C14.217,15.354 12.735,12.563 12.738,9.577 C12.738,4.645 16.709,0.635 21.590,0.635 C26.471,0.635 30.444,4.645 30.444,9.577 C30.447,12.563 28.965,15.354 26.490,17.022 ZM21.592,2.947 C17.973,2.947 15.029,5.921 15.029,9.577 C15.029,13.075 17.725,15.948 21.128,16.190 C21.282,16.185 21.437,16.182 21.592,16.182 C21.747,16.182 21.901,16.185 22.055,16.190 C25.459,15.949 28.155,13.076 28.155,9.577 C28.155,5.921 25.211,2.947 21.592,2.947 ZM12.784,4.057 C10.007,4.057 7.747,6.381 7.747,9.237 C7.747,11.965 9.809,14.207 12.416,14.403 C12.538,14.399 12.661,14.396 12.784,14.396 C13.421,14.396 13.937,14.927 13.937,15.581 L13.937,15.601 C13.937,16.256 13.421,16.786 12.784,16.786 C12.650,16.786 12.517,16.782 12.386,16.775 C9.915,16.876 7.606,17.913 5.848,19.721 C3.994,21.628 2.974,24.161 2.974,26.855 C2.974,27.510 2.456,28.040 1.821,28.040 C1.187,28.040 0.669,27.510 0.669,26.855 C0.669,23.527 1.929,20.398 4.218,18.046 C5.387,16.836 6.797,15.885 8.355,15.252 C6.510,13.803 5.436,11.584 5.444,9.237 C5.444,5.074 8.736,1.688 12.784,1.688 C13.421,1.688 13.937,2.219 13.937,2.873 C13.937,3.527 13.421,4.057 12.784,4.057 Z"/>
</svg>