<svg 
 xmlns="http://www.w3.org/2000/svg"
 xmlns:xlink="http://www.w3.org/1999/xlink"
 width="16px" height="14px">
<path fill-rule="evenodd"  fill="rgb(144, 147, 153)"
 d="M14.391,13.375 L1.608,13.375 C0.725,13.375 0.010,12.661 0.010,11.781 L0.010,2.219 C0.010,1.339 0.725,0.625 1.608,0.625 L14.391,0.625 C15.274,0.625 15.989,1.339 15.989,2.219 L15.989,11.781 C15.989,12.661 15.274,13.375 14.391,13.375 ZM14.924,2.219 C14.924,1.925 14.685,1.688 14.391,1.688 L1.608,1.688 C1.313,1.688 1.075,1.925 1.075,2.219 L1.075,11.781 C1.075,12.075 1.313,12.312 1.608,12.312 L14.391,12.312 C14.685,12.312 14.924,12.075 14.924,11.781 L14.924,2.219 ZM13.326,8.948 L9.597,8.948 C9.303,8.948 9.065,8.710 9.065,8.417 C9.065,8.123 9.303,7.886 9.597,7.886 L13.326,7.886 C13.620,7.886 13.859,8.123 13.859,8.417 C13.859,8.710 13.620,8.948 13.326,8.948 ZM13.326,6.292 L9.597,6.292 C9.303,6.292 9.065,6.054 9.065,5.761 C9.065,5.467 9.303,5.229 9.597,5.229 L13.326,5.229 C13.620,5.229 13.859,5.467 13.859,5.761 C13.859,6.054 13.620,6.292 13.326,6.292 ZM2.140,10.216 C2.140,9.661 3.123,9.192 4.465,9.048 L4.465,8.706 C3.983,8.401 3.511,7.881 3.223,7.239 C3.019,7.140 2.871,6.880 2.751,6.428 C2.667,6.111 2.775,5.888 2.943,5.749 C3.015,4.184 3.950,3.281 5.336,3.281 C6.704,3.281 7.596,4.158 7.687,5.684 C7.873,5.802 8.011,6.016 7.925,6.339 C7.814,6.757 7.677,6.991 7.485,7.074 C7.215,7.788 6.721,8.370 6.208,8.702 L6.208,9.048 C7.549,9.192 8.532,9.661 8.532,10.216 C8.532,10.887 2.140,10.887 2.140,10.216 Z"/>
</svg>