<svg 
 xmlns="http://www.w3.org/2000/svg"
 xmlns:xlink="http://www.w3.org/1999/xlink"
 width="13px" height="16px">
<path fill-rule="evenodd"  fill="rgb(230, 56, 47)"
 d="M12.552,12.757 L8.308,12.757 C8.067,12.757 7.874,12.569 7.874,12.286 C7.874,12.051 8.067,11.815 8.308,11.815 L11.443,11.815 L11.009,11.391 C10.816,11.203 10.816,10.920 11.009,10.732 C11.201,10.543 11.491,10.543 11.635,10.732 L12.648,11.768 C12.696,11.815 12.744,11.815 12.744,11.862 C12.889,11.956 12.986,12.098 12.986,12.286 C12.986,12.522 12.793,12.757 12.552,12.757 ZM12.310,9.790 C12.069,9.790 11.876,9.554 11.876,9.319 L11.876,2.253 L10.816,2.253 C10.575,2.253 10.382,2.017 10.382,1.782 C10.382,1.499 10.575,1.311 10.816,1.311 L12.310,1.311 C12.552,1.311 12.744,1.546 12.744,1.782 L12.744,9.319 C12.744,9.601 12.552,9.790 12.310,9.790 ZM9.562,8.942 L3.197,8.942 C2.956,8.942 2.763,8.753 2.763,8.471 C2.763,8.235 2.956,8.000 3.197,8.000 L9.562,8.000 C9.803,8.000 9.996,8.188 9.996,8.471 C9.996,8.706 9.803,8.942 9.562,8.942 ZM9.562,6.492 L3.197,6.492 C2.956,6.492 2.763,6.304 2.763,6.021 C2.763,5.786 2.956,5.550 3.197,5.550 L9.562,5.550 C9.803,5.550 9.996,5.739 9.996,6.021 C9.996,6.257 9.803,6.492 9.562,6.492 ZM9.466,3.572 C9.224,3.572 9.031,3.336 9.031,3.101 L9.031,0.463 C9.031,0.180 9.224,-0.008 9.466,-0.008 C9.707,-0.008 9.900,0.180 9.900,0.463 L9.900,3.101 C9.900,3.383 9.707,3.572 9.466,3.572 ZM8.115,2.253 L4.643,2.253 C4.402,2.253 4.210,2.017 4.210,1.782 C4.210,1.499 4.402,1.311 4.643,1.311 L8.115,1.311 C8.356,1.311 8.549,1.546 8.549,1.782 C8.549,2.064 8.356,2.253 8.115,2.253 ZM3.293,3.572 C3.004,3.572 2.811,3.336 2.859,3.101 L2.859,0.463 C2.859,0.180 3.052,-0.008 3.293,-0.008 C3.534,-0.008 3.727,0.227 3.727,0.463 L3.727,3.101 C3.727,3.383 3.534,3.572 3.293,3.572 ZM3.149,12.616 L5.367,12.616 C5.608,12.616 5.801,12.804 5.801,13.087 C5.849,13.323 5.656,13.558 5.367,13.558 L3.149,13.558 C2.908,13.558 2.715,13.370 2.715,13.087 C2.715,12.852 2.908,12.616 3.149,12.616 ZM3.197,11.109 C2.956,11.109 2.763,10.920 2.763,10.638 C2.763,10.402 2.956,10.167 3.197,10.167 L6.621,10.167 C6.862,10.167 7.055,10.355 7.055,10.638 C7.055,10.920 6.862,11.109 6.621,11.109 L3.197,11.109 ZM1.943,2.253 L0.882,2.253 L0.882,15.066 L7.344,15.066 C7.585,15.066 7.778,15.301 7.778,15.537 C7.778,15.819 7.585,16.008 7.344,16.008 L0.448,16.008 C0.207,16.008 0.014,15.772 0.014,15.537 L0.014,1.782 C0.014,1.499 0.207,1.311 0.448,1.311 L1.943,1.311 C2.184,1.311 2.377,1.546 2.377,1.782 C2.377,2.064 2.184,2.253 1.943,2.253 ZM8.212,13.652 L12.455,13.652 C12.696,13.652 12.889,13.888 12.889,14.123 C12.889,14.406 12.696,14.594 12.455,14.594 L9.321,14.594 L9.562,14.877 C9.755,15.066 9.755,15.348 9.562,15.537 C9.417,15.725 9.128,15.725 8.935,15.537 L7.922,14.500 L7.922,14.453 C7.826,14.406 7.778,14.265 7.778,14.123 C7.778,13.841 7.971,13.652 8.212,13.652 Z"/>
</svg>