<svg 
 xmlns="http://www.w3.org/2000/svg"
 xmlns:xlink="http://www.w3.org/1999/xlink"
 width="15px" height="15px">
<path fill-rule="evenodd"  fill="rgb(230, 56, 47)"
 d="M3.121,11.016 L3.121,9.743 L4.172,8.691 L3.121,7.639 L3.121,6.366 L4.811,8.052 L4.811,8.051 L5.452,8.691 L4.811,9.331 L4.811,9.330 L3.121,11.016 L3.121,11.016 ZM0.000,8.165 L4.555,8.165 L4.555,9.218 L0.000,9.218 L0.000,8.165 ZM14.000,6.897 L10.533,6.897 C9.981,6.897 9.533,7.345 9.533,7.897 L9.533,7.897 L9.533,9.603 C9.533,10.155 9.981,10.603 10.533,10.603 L10.533,10.603 L14.000,10.603 C14.552,10.603 15.000,10.155 15.000,9.603 C15.000,9.602 15.000,9.602 15.000,9.602 L15.000,7.897 C15.000,7.345 14.552,6.897 14.000,6.897 L14.000,6.897 L14.000,6.897 ZM14.449,9.213 C14.449,9.654 14.091,10.012 13.650,10.012 L10.883,10.012 C10.442,10.012 10.084,9.654 10.084,9.213 L10.084,9.213 L10.084,8.206 C10.084,7.765 10.442,7.408 10.882,7.408 L13.650,7.408 C14.091,7.408 14.449,7.765 14.449,8.206 L14.449,9.213 L14.449,9.213 ZM10.701,8.691 C10.694,8.983 10.925,9.226 11.217,9.233 C11.509,9.241 11.752,9.010 11.759,8.718 C11.760,8.709 11.760,8.700 11.759,8.691 C11.752,8.399 11.509,8.168 11.217,8.175 C10.935,8.182 10.708,8.409 10.701,8.691 ZM9.533,-0.000 L1.528,2.574 L1.528,3.224 L2.138,3.224 L9.013,1.014 L9.723,3.224 L10.569,3.224 L9.533,-0.000 ZM13.169,12.594 C13.169,13.548 12.556,14.242 11.602,14.242 L2.489,14.260 C1.535,14.260 0.842,13.550 0.842,12.596 L0.840,10.666 L0.835,10.661 L0.834,10.010 L0.000,10.010 L0.000,13.000 C0.000,14.104 0.895,15.000 1.999,15.000 L11.996,15.000 C13.100,15.000 13.996,14.104 13.996,13.000 L13.996,10.603 L13.176,10.603 L13.169,12.594 L13.169,12.594 ZM11.996,2.500 L1.999,2.500 C0.895,2.500 0.000,3.395 0.000,4.500 L0.000,7.489 L0.833,7.489 L0.832,4.811 C0.832,3.857 1.486,3.220 2.440,3.220 L11.640,3.220 C12.594,3.220 13.160,3.901 13.160,4.855 L13.175,6.897 L13.995,6.897 L13.995,4.500 C13.995,3.395 13.100,2.500 11.996,2.500 L11.996,2.500 Z"/>
</svg>