<svg 
 xmlns="http://www.w3.org/2000/svg"
 xmlns:xlink="http://www.w3.org/1999/xlink"
 width="17px" height="17px">
<path fill-rule="evenodd"  fill="rgb(230, 56, 47)"
 d="M8.559,11.771 C8.559,11.896 8.512,12.016 8.428,12.108 C8.331,12.196 8.211,12.239 8.091,12.239 C7.971,12.239 7.852,12.196 7.765,12.108 L4.891,9.235 C4.793,9.148 4.750,9.028 4.750,8.909 C4.750,8.789 4.804,8.669 4.891,8.571 C4.979,8.484 5.098,8.440 5.218,8.440 C5.348,8.440 5.468,8.484 5.555,8.571 L8.428,11.444 C8.516,11.532 8.559,11.651 8.559,11.771 ZM6.557,7.102 C6.676,7.102 6.796,7.156 6.883,7.243 L9.757,10.116 C9.844,10.203 9.887,10.323 9.887,10.443 C9.887,10.568 9.840,10.688 9.757,10.780 C9.658,10.867 9.539,10.911 9.419,10.911 C9.299,10.911 9.180,10.867 9.092,10.780 L6.219,7.907 C6.132,7.820 6.078,7.701 6.078,7.581 C6.078,7.461 6.132,7.331 6.219,7.243 C6.306,7.156 6.437,7.102 6.557,7.102 ZM16.221,8.604 L13.098,11.716 L8.766,16.048 C8.679,16.135 8.559,16.190 8.439,16.190 C8.320,16.190 8.200,16.146 8.102,16.048 L0.951,8.887 C0.853,8.800 0.810,8.680 0.810,8.560 C0.810,8.440 0.853,8.321 0.951,8.234 L8.396,0.778 C8.896,0.278 9.092,0.125 10.159,0.343 L15.220,1.388 C15.282,1.401 15.342,1.425 15.396,1.459 L15.404,1.464 C15.413,1.470 15.421,1.477 15.429,1.483 C15.433,1.486 15.436,1.488 15.439,1.491 C15.549,1.580 15.612,1.714 15.612,1.856 C15.612,1.975 15.568,2.095 15.470,2.182 L12.956,4.707 L12.952,4.703 C13.295,5.335 13.203,6.139 12.673,6.677 C12.020,7.319 10.976,7.319 10.323,6.677 C9.680,6.024 9.680,4.980 10.323,4.326 C10.861,3.797 11.665,3.705 12.297,4.048 L12.292,4.043 L14.182,2.146 L9.332,1.170 L1.942,8.560 L8.440,15.058 L12.445,11.052 L15.754,7.744 L15.830,7.668 C15.612,6.590 15.394,5.513 15.177,4.435 C15.155,4.304 15.177,4.174 15.242,4.076 C15.318,3.967 15.427,3.891 15.547,3.869 C15.678,3.836 15.808,3.869 15.906,3.934 C16.016,4.001 16.092,4.112 16.113,4.239 L16.657,6.841 C16.874,7.907 16.711,8.103 16.221,8.604 ZM12.085,4.914 C12.084,4.913 12.082,4.911 12.081,4.910 C11.756,4.588 11.232,4.590 10.910,4.914 C10.908,4.916 10.907,4.917 10.905,4.919 C10.583,5.244 10.585,5.768 10.910,6.090 C11.237,6.405 11.759,6.405 12.085,6.090 C12.087,6.088 12.089,6.087 12.090,6.085 C12.412,5.760 12.410,5.236 12.085,4.914 Z"/>
</svg>