<svg 
 xmlns="http://www.w3.org/2000/svg"
 xmlns:xlink="http://www.w3.org/1999/xlink"
 width="15px" height="15px">
<path fill-rule="evenodd"  fill="rgb(230, 56, 47)"
 d="M10.175,6.045 L9.237,6.045 C8.579,6.045 7.922,5.482 7.922,4.825 L7.922,1.539 C7.922,0.882 8.392,0.225 9.049,0.131 L13.648,0.131 C14.305,0.131 14.868,0.695 14.962,1.352 L14.962,4.637 C14.962,5.200 14.681,5.576 14.211,5.857 C14.024,5.951 13.836,6.045 13.554,6.045 L10.175,6.045 ZM9.518,0.976 C9.143,0.976 8.767,1.352 8.767,1.727 L8.767,4.355 C8.767,4.449 8.767,4.543 8.861,4.637 C8.955,4.919 9.237,5.106 9.518,5.106 L13.367,5.106 C13.742,5.106 14.024,4.825 14.024,4.355 L14.024,1.633 C14.024,1.258 13.742,0.882 13.273,0.882 L11.395,0.882 L9.518,0.976 ZM3.698,14.868 L1.352,14.868 C0.976,14.868 0.695,14.681 0.413,14.399 C0.131,14.118 0.038,13.742 0.038,13.367 L0.038,10.269 C0.038,9.612 0.507,8.955 1.164,8.861 L5.669,8.861 C6.327,8.861 6.890,9.424 6.984,10.081 L6.984,13.367 C6.984,13.742 6.890,14.118 6.608,14.399 C6.327,14.681 6.045,14.868 5.669,14.868 L3.698,14.868 L3.698,14.868 ZM1.633,9.800 C1.258,9.800 0.882,10.081 0.882,10.551 L0.882,13.179 C0.882,13.554 1.164,13.930 1.633,13.930 L5.388,13.930 C5.482,13.930 5.576,13.930 5.669,13.836 C5.951,13.742 6.139,13.460 6.139,13.085 L6.139,10.551 C6.139,10.363 6.139,10.269 6.045,10.081 C5.857,9.894 5.669,9.706 5.388,9.706 L2.478,9.706 C2.196,9.800 1.915,9.800 1.633,9.800 L1.633,9.800 ZM0.601,4.919 L1.539,4.919 C1.727,4.919 1.821,4.825 1.821,4.637 C1.821,4.168 1.821,3.792 2.009,3.417 C2.196,2.572 2.666,1.821 3.229,1.258 C3.886,0.695 4.543,0.319 5.388,0.131 C5.576,0.131 5.669,0.038 5.857,0.038 L5.951,0.038 L5.951,0.976 L5.857,0.976 C5.482,0.976 5.200,1.070 4.825,1.258 C4.543,1.352 4.168,1.633 3.886,1.915 C3.511,2.290 3.229,2.666 3.041,3.135 C2.854,3.511 2.760,3.886 2.760,4.261 L2.760,4.637 C2.760,4.825 2.854,4.919 3.041,4.919 L4.074,4.919 L2.290,6.702 L0.601,4.919 ZM8.861,13.930 L8.955,13.930 C9.143,13.930 9.330,13.930 9.612,13.836 C10.081,13.742 10.551,13.460 10.926,13.179 C11.489,12.710 11.959,12.053 12.146,11.302 C12.240,10.926 12.240,10.645 12.240,10.363 C12.240,10.175 12.146,10.081 11.959,10.081 L10.926,10.081 L12.616,8.298 L13.460,9.143 L14.305,10.081 L13.460,10.081 C13.179,10.081 13.085,10.081 13.085,10.457 C13.085,11.489 12.710,12.334 12.146,13.179 C11.771,13.742 11.208,14.211 10.551,14.493 C10.081,14.775 9.612,14.868 9.143,14.962 L9.049,14.962 L8.767,14.962 L8.861,13.930 L8.861,13.930 Z"/>
</svg>