<svg 
 xmlns="http://www.w3.org/2000/svg"
 xmlns:xlink="http://www.w3.org/1999/xlink"
 width="15px" height="15px">
<path fill-rule="evenodd"  fill="rgb(230, 56, 47)"
 d="M13.500,12.600 L5.775,12.600 L3.675,14.700 C3.525,14.925 3.300,15.000 3.150,15.000 C2.925,15.000 2.775,14.925 2.625,14.775 C2.475,14.625 2.400,14.475 2.400,14.250 L2.400,12.675 L1.500,12.675 C0.675,12.675 -0.000,12.000 -0.000,11.175 L-0.000,1.500 C-0.000,0.675 0.675,-0.000 1.500,-0.000 L13.500,-0.000 C14.325,-0.000 15.000,0.675 15.000,1.500 L15.000,11.100 C15.000,11.925 14.325,12.600 13.500,12.600 ZM13.950,1.500 C13.950,1.275 13.725,1.050 13.500,1.050 L1.500,1.050 C1.275,1.050 1.050,1.275 1.050,1.500 L1.050,11.100 C1.050,11.325 1.275,11.550 1.500,11.550 L3.450,11.550 L3.450,13.500 L5.400,11.550 L13.500,11.550 C13.725,11.550 13.950,11.325 13.950,11.100 L13.950,1.500 ZM11.250,7.350 C10.753,7.350 10.350,6.947 10.350,6.450 C10.350,5.953 10.753,5.550 11.250,5.550 C11.747,5.550 12.150,5.953 12.150,6.450 C12.150,6.947 11.747,7.350 11.250,7.350 ZM7.500,7.350 C7.003,7.350 6.600,6.947 6.600,6.450 C6.600,5.953 7.003,5.550 7.500,5.550 C7.997,5.550 8.400,5.953 8.400,6.450 C8.400,6.947 7.997,7.350 7.500,7.350 ZM3.750,7.350 C3.253,7.350 2.850,6.947 2.850,6.450 C2.850,5.953 3.253,5.550 3.750,5.550 C4.247,5.550 4.650,5.953 4.650,6.450 C4.650,6.947 4.247,7.350 3.750,7.350 Z"/>
</svg>