<svg 
 xmlns="http://www.w3.org/2000/svg"
 xmlns:xlink="http://www.w3.org/1999/xlink"
 width="16px" height="18px">
<path fill-rule="evenodd"  fill="rgb(144, 147, 153)"
 d="M15.446,8.918 C15.446,13.105 12.203,16.534 8.135,17.738 C8.024,17.771 7.907,17.772 7.797,17.740 C3.659,16.559 0.486,13.106 0.486,8.919 L0.523,3.255 C0.523,2.926 0.778,2.663 1.083,2.663 C1.121,2.664 1.160,2.668 1.198,2.676 C1.518,2.743 1.845,2.776 2.173,2.774 C2.728,2.774 3.425,2.690 4.266,2.441 C5.547,2.063 6.702,1.346 7.611,0.366 C7.720,0.244 7.876,0.173 8.040,0.172 C8.184,0.172 8.323,0.229 8.425,0.331 C9.021,0.912 10.209,1.915 11.756,2.440 C12.510,2.697 13.176,2.782 13.727,2.782 C14.078,2.783 14.429,2.746 14.772,2.673 C14.814,2.664 14.857,2.659 14.900,2.659 C14.902,2.659 14.904,2.659 14.906,2.659 C15.227,2.662 15.486,2.925 15.483,3.247 L15.446,8.918 ZM13.728,4.034 C12.920,4.030 12.119,3.892 11.356,3.627 C9.941,3.147 8.796,2.326 8.056,1.689 C7.075,2.594 5.900,3.262 4.621,3.642 C3.761,3.897 2.937,4.026 2.173,4.026 C2.036,4.026 1.901,4.022 1.768,4.014 L1.736,8.927 C1.736,12.328 4.229,15.347 7.960,16.482 C11.641,15.321 14.197,12.234 14.197,8.919 L14.229,4.015 C14.064,4.028 13.897,4.034 13.728,4.034 ZM8.264,11.377 C8.157,11.496 8.008,11.567 7.848,11.575 L7.821,11.575 C7.671,11.575 7.527,11.519 7.417,11.417 L4.613,8.831 C4.370,8.607 4.354,8.229 4.578,7.986 C4.801,7.743 5.179,7.727 5.421,7.951 L7.781,10.128 L11.318,6.196 C11.538,5.950 11.916,5.931 12.161,6.152 C12.406,6.373 12.426,6.751 12.205,6.997 L8.264,11.377 Z"/>
</svg>