<svg 
 xmlns="http://www.w3.org/2000/svg"
 xmlns:xlink="http://www.w3.org/1999/xlink"
 width="16px" height="12px">
<path fill-rule="evenodd"  fill="rgb(144, 147, 153)"
 d="M14.932,11.099 L1.991,11.099 C1.736,11.099 1.528,10.909 1.528,10.674 L1.528,0.474 C1.528,0.239 1.322,0.049 1.067,0.049 C0.812,0.049 0.605,0.239 0.605,0.474 L0.605,11.099 C0.605,11.568 1.019,11.950 1.528,11.950 L14.933,11.950 C15.188,11.950 15.395,11.760 15.395,11.524 C15.395,11.289 15.189,11.099 14.932,11.099 L14.932,11.099 L14.932,11.099 ZM2.914,7.700 L3.831,7.700 C3.990,7.704 4.148,7.633 4.238,7.501 L5.220,6.053 L6.622,8.950 C6.682,9.073 6.798,9.158 6.930,9.189 C7.171,9.250 7.422,9.125 7.495,8.904 L9.390,3.198 L10.771,7.358 C10.815,7.554 11.000,7.699 11.223,7.699 L13.532,7.699 C13.572,7.699 13.610,7.695 13.647,7.685 C13.805,7.947 14.107,8.125 14.455,8.125 C14.966,8.125 15.379,7.744 15.379,7.274 C15.379,6.803 14.966,6.423 14.455,6.423 C14.108,6.423 13.806,6.601 13.647,6.863 C13.610,6.853 13.572,6.849 13.532,6.849 L11.568,6.849 L9.832,1.623 C9.758,1.399 9.501,1.272 9.257,1.341 C9.173,1.365 9.100,1.410 9.046,1.467 C9.001,1.511 8.967,1.566 8.945,1.627 L6.971,7.577 L5.722,4.995 C5.700,4.942 5.668,4.893 5.622,4.851 C5.620,4.849 5.617,4.847 5.616,4.846 L5.607,4.837 C5.477,4.723 5.277,4.685 5.101,4.758 C5.001,4.799 4.924,4.869 4.878,4.953 L3.590,6.848 L2.914,6.848 C2.659,6.848 2.452,7.039 2.452,7.274 C2.453,7.509 2.660,7.700 2.914,7.700 L2.914,7.700 L2.914,7.700 Z"/>
</svg>