<svg 
 xmlns="http://www.w3.org/2000/svg"
 xmlns:xlink="http://www.w3.org/1999/xlink"
 width="15px" height="15px">
<defs>
<filter id="Filter_0">
    <feFlood flood-color="rgb(230, 56, 47)" flood-opacity="1" result="floodOut" />
    <feComposite operator="atop" in="floodOut" in2="SourceGraphic" result="compOut" />
    <feBlend mode="normal" in="compOut" in2="SourceGraphic" />
</filter>

</defs>
<g filter="url(#Filter_0)">
<path fill-rule="evenodd"  fill="rgb(230, 56, 47)"
 d="M14.000,11.250 C13.724,11.250 13.500,11.026 13.500,10.750 L13.500,1.500 L1.500,1.500 L1.500,13.500 L10.750,13.500 C11.026,13.500 11.250,13.724 11.250,14.000 C11.250,14.276 11.026,14.500 10.750,14.500 L1.500,14.500 C0.949,14.500 0.500,14.052 0.500,13.500 L0.500,1.500 C0.500,0.949 0.949,0.500 1.500,0.500 L13.500,0.500 C14.052,0.500 14.500,0.949 14.500,1.500 L14.500,10.750 C14.500,11.026 14.276,11.250 14.000,11.250 ZM3.500,6.104 L5.000,6.104 C5.276,6.104 5.500,6.328 5.500,6.604 C5.500,6.880 5.276,7.104 5.000,7.104 L3.500,7.104 C3.224,7.104 3.000,6.880 3.000,6.604 C3.000,6.328 3.224,6.104 3.500,6.104 ZM3.500,3.125 L11.500,3.125 C11.776,3.125 12.000,3.349 12.000,3.625 C12.000,3.901 11.776,4.125 11.500,4.125 L3.500,4.125 C3.224,4.125 3.000,3.901 3.000,3.625 C3.000,3.349 3.224,3.125 3.500,3.125 ZM9.250,12.500 C7.458,12.500 6.000,11.042 6.000,9.250 C6.000,7.458 7.458,6.000 9.250,6.000 C11.042,6.000 12.500,7.458 12.500,9.250 C12.500,9.939 12.279,10.609 11.871,11.164 L13.603,12.896 C13.604,12.897 13.604,12.897 13.604,12.897 C13.799,13.092 13.799,13.409 13.603,13.604 C13.603,13.604 13.602,13.605 13.601,13.605 C13.406,13.800 13.091,13.799 12.896,13.604 L11.164,11.871 C10.609,12.279 9.939,12.500 9.250,12.500 ZM9.250,7.000 C8.009,7.000 7.000,8.010 7.000,9.250 C7.000,10.491 8.009,11.500 9.250,11.500 C10.490,11.500 11.500,10.491 11.500,9.250 C11.500,8.010 10.490,7.000 9.250,7.000 Z"/>
</g>
</svg>