<svg 
 xmlns="http://www.w3.org/2000/svg"
 xmlns:xlink="http://www.w3.org/1999/xlink"
 width="34px" height="34px">
<defs>
<filter id="Filter_0">
    <feFlood flood-color="rgb(255, 255, 255)" flood-opacity="1" result="floodOut" />
    <feComposite operator="atop" in="floodOut" in2="SourceGraphic" result="compOut" />
    <feBlend mode="normal" in="compOut" in2="SourceGraphic" />
</filter>

</defs>
<path fill-rule="evenodd"  fill="rgb(117, 199, 246)"
 d="M17.000,0.000 C26.389,0.000 34.000,7.611 34.000,17.000 C34.000,26.389 26.389,34.000 17.000,34.000 C7.611,34.000 0.000,26.389 0.000,17.000 C0.000,7.611 7.611,0.000 17.000,0.000 Z"/>
<g filter="url(#Filter_0)">
<path fill-rule="evenodd"  fill="rgb(246, 41, 78)"
 d="M20.235,18.247 C20.077,18.043 19.784,18.005 19.579,18.162 C19.548,18.187 19.519,18.215 19.494,18.247 C19.239,18.502 18.948,18.730 18.666,18.959 C17.725,19.869 16.230,19.869 15.290,18.959 L14.153,18.010 C13.060,18.889 12.029,19.627 10.927,20.479 C10.346,20.937 9.649,21.420 9.050,21.895 L9.050,22.202 C9.084,22.513 9.337,22.754 9.649,22.773 L24.315,22.773 C24.622,22.741 24.868,22.506 24.915,22.202 L24.915,21.859 C23.936,21.130 22.958,20.400 21.989,19.653 C21.398,19.179 20.807,18.722 20.235,18.247 L20.235,18.247 ZM9.050,20.743 L13.457,17.438 L9.050,13.826 L9.050,20.743 ZM15.704,18.080 C16.709,18.862 17.317,18.880 18.348,18.080 C20.614,16.190 21.874,15.188 24.218,13.325 L24.915,12.736 C24.847,12.455 24.605,12.249 24.315,12.226 L9.658,12.226 C9.363,12.239 9.114,12.448 9.050,12.736 L9.702,13.281 C11.826,15.048 13.422,16.322 15.704,18.080 ZM24.950,20.717 L24.950,13.817 L20.578,17.403 L24.950,20.717 Z"/>
</g>
</svg>