<svg 
 xmlns="http://www.w3.org/2000/svg"
 xmlns:xlink="http://www.w3.org/1999/xlink"
 width="34px" height="34px">
<path fill-rule="evenodd"  fill="rgb(71, 217, 87)"
 d="M17.000,-0.000 C26.389,-0.000 34.000,7.611 34.000,17.000 C34.000,26.389 26.389,34.000 17.000,34.000 C7.611,34.000 0.000,26.389 0.000,17.000 C0.000,7.611 7.611,-0.000 17.000,-0.000 Z"/>
<path fill-rule="evenodd"  fill="rgb(255, 255, 255)"
 d="M22.980,17.000 C20.933,17.000 19.263,18.777 19.263,20.931 C19.263,22.115 19.748,23.246 20.664,24.000 L9.780,24.000 C8.864,24.000 8.110,23.192 8.110,22.223 L8.110,11.777 C8.110,10.808 8.864,10.000 9.780,10.000 L24.274,10.000 C25.136,10.000 25.890,10.808 25.890,11.777 L25.890,18.454 C25.190,17.538 24.166,17.000 22.980,17.000 ZM17.593,18.346 L18.401,18.346 C18.616,18.346 18.832,18.131 18.832,17.915 C18.832,17.700 18.670,17.485 18.401,17.485 L17.593,17.485 C17.377,17.485 17.162,17.700 17.162,17.915 C17.162,18.131 17.323,18.346 17.593,18.346 ZM13.013,12.208 C11.935,12.208 11.019,13.123 11.019,14.254 C11.019,15.385 11.882,16.300 13.013,16.300 C14.091,16.300 15.006,15.385 15.006,14.254 C15.006,13.123 14.091,12.208 13.013,12.208 ZM13.821,16.892 L12.313,16.892 C10.966,16.892 9.834,18.077 9.834,19.477 L9.834,19.638 C9.834,20.392 10.912,20.392 12.313,20.392 L13.767,20.392 C15.114,20.392 16.246,20.392 16.246,19.638 L16.246,19.477 L16.300,19.477 C16.300,18.023 15.168,16.892 13.821,16.892 ZM21.741,12.746 L17.593,12.746 C17.377,12.746 17.162,12.962 17.162,13.177 C17.162,13.392 17.323,13.608 17.593,13.608 L21.741,13.608 C21.957,13.608 22.172,13.392 22.172,13.177 C22.172,12.962 22.011,12.746 21.741,12.746 ZM21.741,15.115 L17.593,15.115 C17.377,15.115 17.162,15.331 17.162,15.546 C17.162,15.762 17.323,15.977 17.593,15.977 L21.741,15.977 C21.957,15.977 22.172,15.762 22.172,15.546 C22.172,15.331 22.011,15.115 21.741,15.115 ZM22.980,17.862 C24.597,17.862 25.890,19.262 25.890,20.931 C25.890,22.600 24.597,24.000 22.980,24.000 C21.364,24.000 20.071,22.600 20.071,20.931 C20.071,19.208 21.364,17.862 22.980,17.862 ZM21.364,21.631 L22.172,22.492 C22.280,22.600 22.388,22.654 22.496,22.654 C22.603,22.654 22.711,22.600 22.819,22.492 L24.866,20.285 C25.028,20.123 25.028,19.800 24.866,19.638 C24.758,19.531 24.651,19.477 24.543,19.477 C24.435,19.477 24.327,19.531 24.220,19.638 L22.496,21.523 L22.011,20.985 C21.903,20.877 21.795,20.823 21.687,20.823 C21.580,20.823 21.472,20.877 21.364,20.985 C21.203,21.146 21.203,21.469 21.364,21.631 Z"/>
</svg>