<svg 
 xmlns="http://www.w3.org/2000/svg"
 xmlns:xlink="http://www.w3.org/1999/xlink"
 width="34px" height="34px">
<path fill-rule="evenodd"  fill="rgb(221, 140, 233)"
 d="M17.000,0.000 C26.389,0.000 34.000,7.611 34.000,17.000 C34.000,26.389 26.389,34.000 17.000,34.000 C7.611,34.000 0.000,26.389 0.000,17.000 C0.000,7.611 7.611,0.000 17.000,0.000 Z"/>
<path fill-rule="evenodd"  fill="rgb(255, 255, 255)"
 d="M20.875,8.002 L14.124,8.002 C12.959,8.002 11.994,8.933 11.994,10.058 L11.994,23.942 C11.994,25.067 12.959,25.997 14.124,25.997 L20.875,25.997 C22.041,25.997 23.005,25.067 23.005,23.942 L23.005,10.058 C23.005,8.933 22.041,8.002 20.875,8.002 L20.875,8.002 ZM17.500,25.183 C16.817,25.183 16.214,24.640 16.214,23.942 C16.214,23.283 16.776,22.701 17.500,22.701 C18.223,22.701 18.786,23.244 18.786,23.942 C18.786,24.601 18.183,25.183 17.500,25.183 ZM21.317,21.887 L13.682,21.887 L13.682,10.484 L21.317,10.484 L21.317,21.887 Z"/>
</svg>