<svg 
 xmlns="http://www.w3.org/2000/svg"
 xmlns:xlink="http://www.w3.org/1999/xlink"
 width="34px" height="34px">
<path fill-rule="evenodd"  fill="rgb(245, 195, 59)"
 d="M17.000,-0.000 C26.389,-0.000 34.000,7.611 34.000,17.000 C34.000,26.389 26.389,34.000 17.000,34.000 C7.611,34.000 0.000,26.389 0.000,17.000 C0.000,7.611 7.611,-0.000 17.000,-0.000 Z"/>
<path fill-rule="evenodd"  fill="rgb(255, 255, 255)"
 d="M17.623,19.488 L17.623,20.892 C17.596,21.235 17.294,21.491 16.949,21.464 C16.643,21.439 16.400,21.197 16.376,20.892 L16.376,19.488 C15.992,19.272 15.755,18.867 15.754,18.428 C15.754,17.742 16.312,17.185 17.001,17.185 C17.690,17.185 18.249,17.742 18.249,18.428 C18.247,18.867 18.010,19.272 17.627,19.488 L17.623,19.488 ZM21.370,14.122 L12.633,14.122 C11.605,14.115 10.766,14.940 10.760,15.965 C10.760,15.966 10.760,15.968 10.760,15.969 L10.760,22.119 C10.766,23.145 11.604,23.971 12.633,23.967 L21.370,23.967 C22.397,23.969 23.233,23.143 23.239,22.119 L23.239,15.969 C23.233,14.944 22.395,14.117 21.366,14.122 L21.370,14.122 ZM14.502,12.842 C14.502,11.930 14.747,9.815 17.001,9.815 C19.172,9.815 19.497,11.710 19.497,12.842 L19.497,13.510 L21.366,13.510 L21.366,12.842 C21.366,9.883 19.653,7.971 17.001,7.971 C14.350,7.971 12.633,9.883 12.633,12.842 L12.633,13.510 L14.502,13.510 L14.502,12.842 Z"/>
</svg>