<svg 
 xmlns="http://www.w3.org/2000/svg"
 xmlns:xlink="http://www.w3.org/1999/xlink"
 width="34px" height="34px">
<path fill-rule="evenodd"  fill="rgb(246, 114, 68)"
 d="M17.000,-0.000 C26.389,-0.000 34.000,7.611 34.000,17.000 C34.000,26.389 26.389,34.000 17.000,34.000 C7.611,34.000 0.000,26.389 0.000,17.000 C0.000,7.611 7.611,-0.000 17.000,-0.000 Z"/>
<path fill-rule="evenodd"  fill="rgb(255, 255, 255)"
 d="M24.096,22.975 C24.096,23.190 24.053,23.404 23.967,23.576 C23.881,23.748 23.795,23.920 23.666,24.092 C23.537,24.221 23.365,24.350 23.193,24.436 C23.021,24.522 22.806,24.565 22.591,24.565 L11.366,24.565 C11.151,24.565 10.936,24.522 10.764,24.436 C10.549,24.350 10.377,24.264 10.248,24.092 C10.119,23.963 9.990,23.791 9.904,23.576 C9.818,23.404 9.775,23.190 9.775,22.975 L9.775,14.421 C9.775,13.991 9.947,13.604 10.248,13.303 C10.549,13.003 10.936,12.831 11.366,12.831 L22.634,12.831 C23.064,12.831 23.451,13.003 23.752,13.303 C24.053,13.604 24.225,13.991 24.225,14.421 L24.225,16.742 L20.225,16.742 C19.795,16.742 19.408,16.871 19.107,17.172 C18.806,17.473 18.634,17.817 18.634,18.289 C18.634,18.590 18.720,18.848 18.806,19.063 C18.892,19.278 19.064,19.450 19.279,19.579 C19.494,19.751 19.795,19.837 20.182,19.837 L24.096,19.837 L24.096,22.975 L24.096,22.975 ZM21.774,12.057 L13.990,12.057 C14.592,11.756 15.194,11.412 15.753,11.111 L17.172,10.338 C17.645,10.080 17.989,9.908 18.290,9.736 C18.677,9.521 19.064,9.435 19.365,9.435 C19.666,9.435 19.967,9.521 20.182,9.607 C20.440,9.736 20.655,9.908 20.828,10.123 L21.774,12.057 L21.774,12.057 ZM19.451,18.289 C19.451,18.075 19.537,17.903 19.666,17.731 C19.795,17.602 20.010,17.516 20.225,17.516 C20.440,17.516 20.612,17.602 20.784,17.731 C20.913,17.860 20.999,18.075 20.999,18.289 C20.999,18.504 20.913,18.676 20.784,18.848 C20.655,19.020 20.440,19.063 20.225,19.063 C20.010,19.063 19.838,18.977 19.666,18.848 C19.537,18.719 19.451,18.547 19.451,18.289 L19.451,18.289 Z"/>
</svg>