<svg 
 xmlns="http://www.w3.org/2000/svg"
 xmlns:xlink="http://www.w3.org/1999/xlink"
 width="59px" height="27px">
<path fill-rule="evenodd"  fill="rgb(255, 255, 255)"
 d="M58.703,6.701 L55.594,6.911 C55.337,6.927 55.220,6.755 55.332,6.527 L56.703,3.766 C56.816,3.539 57.026,3.524 57.170,3.734 L58.908,6.286 C59.051,6.497 58.959,6.684 58.703,6.701 ZM54.079,9.492 L54.009,9.501 C53.602,9.553 53.312,9.925 53.366,10.327 L53.374,10.395 C53.427,10.797 53.138,11.169 52.730,11.221 L51.659,11.358 C51.251,11.411 50.875,11.125 50.822,10.723 L50.813,10.654 C50.759,10.252 50.383,9.966 49.975,10.019 L49.906,10.028 C49.498,10.079 49.122,9.794 49.068,9.392 L48.929,8.336 C48.876,7.934 49.166,7.562 49.574,7.510 L49.643,7.501 C50.051,7.448 50.341,7.076 50.288,6.675 L50.278,6.607 C50.225,6.205 50.515,5.833 50.923,5.780 L51.994,5.643 C52.402,5.591 52.778,5.877 52.831,6.279 L52.840,6.348 C52.893,6.750 53.269,7.036 53.677,6.983 L53.747,6.973 C54.154,6.921 54.531,7.207 54.584,7.609 L54.724,8.666 C54.776,9.068 54.486,9.440 54.079,9.492 ZM54.365,4.535 L52.554,4.767 C52.355,4.793 52.171,4.653 52.145,4.456 L51.909,2.672 C51.884,2.474 52.025,2.292 52.225,2.267 L54.035,2.034 C54.234,2.009 54.418,2.149 54.444,2.345 L54.680,4.131 C54.706,4.327 54.564,4.509 54.365,4.535 ZM49.969,3.704 L50.026,3.886 C50.358,4.954 49.743,6.095 48.659,6.423 L48.474,6.479 C47.644,6.729 47.091,7.458 47.026,8.265 C46.898,8.190 46.772,8.112 46.637,8.045 C43.742,6.616 40.221,7.773 38.772,10.629 C37.324,13.485 38.497,16.957 41.392,18.386 C43.159,19.258 45.156,19.161 46.775,18.308 L50.773,24.617 C46.998,26.790 42.223,27.102 38.023,25.030 C31.409,21.766 28.730,13.830 32.038,7.306 C35.346,0.781 43.391,-1.862 50.005,1.402 C50.172,1.484 50.333,1.575 50.495,1.663 C49.968,2.179 49.738,2.959 49.969,3.704 ZM16.767,26.999 L19.468,13.700 L17.265,17.191 L11.731,17.191 L10.329,24.268 L0.958,24.245 L2.430,17.191 L-0.000,17.191 L0.958,12.534 L3.154,12.534 L5.468,1.146 L14.932,1.146 L12.572,12.649 L19.682,12.649 L21.885,1.803 L31.162,1.826 L26.021,26.999 L16.767,26.999 ZM58.367,8.670 C59.041,9.182 59.166,10.134 58.648,10.799 C58.130,11.463 57.163,11.587 56.490,11.076 C55.816,10.564 55.691,9.611 56.209,8.947 C56.727,8.283 57.693,8.159 58.367,8.670 Z"/>
</svg>