<svg 
 xmlns="http://www.w3.org/2000/svg"
 xmlns:xlink="http://www.w3.org/1999/xlink"
 width="18px" height="20px">
<path fill-rule="evenodd"  fill="rgb(25, 28, 33)"
 d="M9.000,20.010 C2.659,20.010 0.000,17.773 0.000,13.177 C0.000,9.370 3.015,5.396 6.671,4.143 L11.328,4.143 C14.984,5.396 18.000,9.370 18.000,13.177 C18.000,17.774 15.341,20.010 9.000,20.010 L9.000,20.010 ZM11.494,12.457 L11.494,12.456 C11.915,12.454 12.255,12.117 12.255,11.702 C12.255,11.286 11.915,10.949 11.494,10.946 L11.494,10.944 L9.950,10.944 C9.954,10.928 9.948,10.913 9.950,10.896 L11.759,9.071 C12.055,8.744 11.904,8.473 11.606,8.176 C11.305,7.877 10.816,7.814 10.573,8.074 L9.017,9.710 L7.337,8.053 C7.124,7.843 6.710,7.912 6.412,8.205 C6.114,8.499 6.046,8.907 6.258,9.117 L7.976,10.811 C7.945,10.852 7.924,10.897 7.911,10.944 L6.515,10.944 L6.515,10.946 L6.510,10.946 C6.088,10.946 5.744,11.284 5.744,11.701 C5.744,12.118 6.088,12.457 6.510,12.457 C6.512,12.457 6.513,12.456 6.515,12.456 L6.515,12.457 L8.046,12.457 L8.046,13.210 L6.515,13.210 L6.515,13.212 L6.510,13.212 C6.088,13.212 5.744,13.550 5.744,13.967 C5.744,14.384 6.088,14.723 6.510,14.723 C6.512,14.723 6.513,14.722 6.515,14.722 L6.515,14.723 L8.046,14.723 L8.046,15.483 L8.061,15.483 C8.050,15.542 8.042,15.604 8.042,15.667 C8.042,16.188 8.471,16.611 9.000,16.611 C9.529,16.611 9.957,16.188 9.957,15.667 C9.957,15.604 9.950,15.542 9.938,15.483 L9.948,15.483 L9.948,14.723 L11.494,14.722 C11.915,14.720 12.256,14.383 12.256,13.967 C12.256,13.552 11.915,13.215 11.494,13.212 L11.494,13.210 L9.948,13.210 L9.948,12.457 L11.494,12.457 ZM12.638,1.127 L12.478,1.325 C12.474,1.329 12.472,1.333 12.468,1.337 L11.106,3.015 L6.510,3.015 L5.152,1.340 C5.142,1.330 5.135,1.318 5.126,1.308 L4.979,1.127 L5.004,1.075 C4.992,1.029 4.975,0.984 4.975,0.933 C4.975,0.693 5.129,0.490 5.344,0.407 L5.361,0.371 C5.361,0.371 7.244,0.000 8.808,-0.006 C10.445,-0.013 12.255,0.371 12.255,0.371 L12.274,0.408 C12.487,0.491 12.640,0.694 12.640,0.933 C12.640,0.983 12.623,1.027 12.611,1.072 L12.638,1.127 Z"/>
</svg>