<svg 
 xmlns="http://www.w3.org/2000/svg"
 xmlns:xlink="http://www.w3.org/1999/xlink"
 width="18px" height="14px">
<path fill-rule="evenodd"  fill="rgb(25, 28, 33)"
 d="M7.540,8.967 L-0.000,4.141 L-0.000,11.738 C-0.000,12.983 1.000,14.000 2.240,14.000 L15.750,14.000 C16.990,14.000 17.990,12.983 17.990,11.738 L17.990,4.265 L10.940,8.936 C9.980,9.589 8.500,9.589 7.540,8.967 L7.540,8.967 ZM15.760,0.000 L2.240,0.000 C1.000,0.000 -0.000,1.017 -0.000,2.262 L-0.000,2.273 L8.470,7.701 C8.860,7.960 9.580,7.950 9.980,7.690 L18.000,2.397 L18.000,2.283 C18.000,1.017 17.000,0.000 15.760,0.000 L15.760,0.000 Z"/>
</svg>