<svg 
 xmlns="http://www.w3.org/2000/svg"
 xmlns:xlink="http://www.w3.org/1999/xlink"
 width="68px" height="26px">
<path fill-rule="evenodd"  fill="rgb(255, 255, 255)"
 d="M67.689,25.851 C66.007,25.851 64.360,24.252 64.360,21.548 L64.360,15.835 C64.360,12.282 61.546,9.334 58.021,9.299 C55.995,9.280 54.461,10.450 52.993,11.681 C52.573,12.033 51.961,12.573 51.320,13.146 L51.320,13.481 L51.320,19.166 L51.320,22.100 C51.320,23.721 50.224,26.000 48.014,26.000 L47.686,26.000 L47.686,18.789 L47.686,16.460 L41.071,22.612 C40.707,23.010 40.311,23.378 39.888,23.713 L39.789,23.805 L39.781,23.797 C38.092,25.097 35.984,25.870 33.701,25.870 C30.625,25.870 27.868,24.467 26.025,22.264 L14.177,10.683 L14.189,10.670 L14.188,10.669 C13.101,9.811 11.733,9.299 10.248,9.299 C6.664,9.299 3.758,12.284 3.847,15.917 C3.931,19.297 6.637,22.067 9.989,22.201 C11.864,22.276 13.571,21.533 14.788,20.299 C15.226,19.854 16.787,18.895 18.085,18.873 C19.578,18.848 20.919,19.218 20.919,19.218 C17.515,23.177 14.724,25.870 10.248,25.870 C4.582,25.870 -0.003,21.113 0.218,15.353 C0.226,15.146 0.251,14.944 0.271,14.741 L-0.002,14.741 L-0.002,0.059 L0.327,0.059 C2.536,0.059 3.633,2.324 3.633,3.936 L3.633,8.167 C5.310,6.678 7.475,5.736 9.851,5.643 C13.089,5.517 16.007,6.946 17.929,9.247 L29.872,20.921 C29.909,20.949 29.946,20.978 29.984,21.005 C31.033,21.761 32.316,22.206 33.701,22.206 C35.138,22.206 36.465,21.726 37.535,20.917 L38.372,20.138 C38.415,20.036 38.472,19.937 38.544,19.843 C39.419,18.711 39.927,17.279 39.888,15.728 C39.804,12.362 37.116,9.601 33.776,9.453 C31.987,9.373 30.350,10.037 29.143,11.163 C28.227,12.017 27.323,12.503 25.971,12.686 C26.055,12.723 26.154,12.726 25.074,12.766 C23.498,12.825 22.671,12.200 22.671,12.200 L22.671,0.059 L23.000,0.059 C25.209,0.059 26.306,2.337 26.306,3.959 L26.306,8.843 C26.306,8.843 26.306,8.843 26.306,8.843 C28.220,6.867 30.927,5.673 33.905,5.795 C39.071,6.008 43.228,10.199 43.500,15.358 C43.637,15.236 43.721,15.163 43.721,15.163 L47.686,11.522 L47.686,6.648 L48.014,6.648 C49.398,6.648 50.345,7.542 50.860,8.608 C52.691,6.761 55.223,5.620 58.016,5.636 C63.555,5.668 67.995,10.281 67.995,15.864 L67.995,25.851 L67.689,25.851 ZM49.503,4.971 C49.503,4.971 48.883,4.484 48.307,3.811 C47.876,3.307 47.447,2.711 47.447,2.070 C47.447,0.927 48.368,-0.000 49.503,-0.000 C50.638,-0.000 51.559,0.927 51.559,2.070 C51.559,2.697 51.062,3.347 50.584,3.887 C50.038,4.505 49.503,4.971 49.503,4.971 Z"/>
</svg>