<svg 
 xmlns="http://www.w3.org/2000/svg"
 xmlns:xlink="http://www.w3.org/1999/xlink"
 width="58px" height="27px">
<path fill-rule="evenodd"  fill="rgb(255, 255, 255)"
 d="M48.277,7.900 C43.135,7.900 38.967,12.089 38.967,17.256 C38.967,18.722 39.304,20.110 39.902,21.346 C38.800,19.745 34.606,14.193 26.473,9.281 C23.705,7.609 20.011,6.536 16.565,5.546 C13.148,4.565 9.646,3.900 6.979,3.850 C4.471,3.804 2.029,4.472 1.795,6.536 C1.558,8.613 2.772,10.478 5.110,13.392 C5.110,13.392 2.207,11.720 0.312,7.152 C-0.398,5.439 0.169,3.662 1.335,2.695 C3.279,1.086 6.738,0.489 9.011,0.298 C9.011,0.298 17.337,-0.937 28.252,1.582 C36.365,3.455 45.311,6.232 49.574,7.993 C49.151,7.933 48.718,7.900 48.277,7.900 ZM2.269,6.654 C2.421,3.894 6.928,4.428 6.928,4.428 C6.928,4.428 3.841,4.827 3.368,6.636 C2.894,8.444 4.807,12.230 4.807,12.230 C4.807,12.230 2.118,9.413 2.269,6.654 Z"/>
<path fill-rule="evenodd"  fill="rgb(255, 255, 255)"
 d="M48.877,8.828 C43.911,8.828 39.886,12.894 39.886,17.911 C39.886,22.928 43.911,26.995 48.877,26.995 C53.843,26.995 57.868,22.928 57.868,17.911 C57.868,12.894 53.843,8.828 48.877,8.828 "/>
<path fill-rule="evenodd"  fill="rgb(61, 61, 63)"
 d="M58.003,17.628 C57.738,17.422 57.354,17.242 57.189,17.168 C57.044,15.943 56.350,14.693 56.037,14.178 L56.055,14.180 C56.119,13.462 56.081,12.594 56.041,12.023 C57.258,13.563 57.992,15.508 58.003,17.628 ZM57.990,17.999 C57.906,20.417 56.892,22.593 55.290,24.172 C55.050,24.069 54.720,23.824 54.538,23.682 C55.196,22.531 55.393,20.314 55.424,19.915 C56.732,18.765 57.140,17.676 57.203,17.485 C57.510,17.629 57.883,17.841 57.990,17.999 ZM53.185,14.256 C51.868,12.762 50.444,12.028 49.944,11.800 L49.746,9.451 C50.174,9.334 51.044,9.118 51.819,9.054 C53.349,9.563 54.693,10.474 55.737,11.663 C55.775,12.093 55.846,13.097 55.797,13.941 L53.185,14.256 ZM46.259,9.162 L46.240,9.033 C47.111,8.750 48.038,8.594 49.001,8.594 C49.733,8.594 50.441,8.691 51.123,8.858 C50.376,8.981 49.682,9.173 49.469,9.236 C48.930,9.141 47.629,8.965 46.259,9.162 ZM41.322,13.710 L41.023,13.471 C42.067,11.462 43.834,9.901 45.976,9.131 L46.000,9.302 C45.676,9.642 44.760,10.658 44.401,11.602 C43.883,11.814 42.502,12.460 41.322,13.710 ZM44.499,11.866 L46.412,13.372 C46.258,13.974 45.913,15.571 46.047,17.338 C45.444,17.846 44.136,18.777 43.646,19.123 C42.489,18.721 41.342,17.753 41.003,17.453 C40.898,15.771 41.115,14.704 41.274,14.180 C42.448,12.810 43.965,12.091 44.499,11.866 ZM44.638,22.751 L43.621,24.621 C43.321,24.543 42.984,24.362 42.812,24.264 C41.410,22.924 40.440,21.135 40.121,19.123 C40.244,18.477 40.671,17.953 40.886,17.721 C41.290,18.078 42.353,18.947 43.472,19.360 C43.712,20.945 44.380,22.280 44.638,22.751 ZM48.201,22.962 C48.511,23.320 49.532,24.419 50.960,25.103 C50.745,25.800 50.293,26.463 50.136,26.682 C49.763,26.728 49.387,26.762 49.001,26.762 C47.487,26.762 46.062,26.380 44.810,25.714 C44.490,25.441 44.060,25.000 43.849,24.780 L44.846,22.946 C46.713,23.201 47.840,23.036 48.201,22.962 ZM48.995,19.524 C47.648,18.596 46.719,17.800 46.332,17.454 C46.164,15.584 46.561,13.883 46.697,13.366 C47.195,13.102 48.670,12.346 49.792,12.040 C50.226,12.237 51.704,12.975 53.029,14.497 L53.055,14.472 C53.054,15.934 52.851,17.312 52.763,17.839 C51.241,18.815 49.319,19.425 48.995,19.524 ZM48.381,22.744 L49.170,19.764 C49.677,19.604 51.394,19.026 52.815,18.137 L55.147,19.916 C55.111,20.362 54.891,22.709 54.203,23.701 L54.219,23.713 C52.897,24.710 51.749,24.907 51.260,24.942 L51.263,24.935 C49.758,24.274 48.652,23.058 48.381,22.744 Z"/>
</svg>