<svg 
 xmlns="http://www.w3.org/2000/svg"
 xmlns:xlink="http://www.w3.org/1999/xlink"
 width="27px" height="27px">
<path fill-rule="evenodd"  fill="rgb(255, 255, 255)"
 d="M26.839,9.797 L23.159,3.597 C22.763,2.930 21.821,2.820 21.274,3.377 L15.555,9.205 L15.841,1.199 C15.868,0.447 15.163,-0.130 14.408,0.027 L7.223,1.517 C6.449,1.677 6.050,2.516 6.424,3.196 L10.066,10.261 L2.345,7.780 C1.620,7.524 0.840,8.001 0.761,8.750 L0.006,15.874 C-0.075,16.641 0.621,17.270 1.399,17.132 L9.702,15.739 L4.730,22.326 C4.264,22.926 4.499,23.793 5.209,24.089 L11.963,26.906 C12.690,27.209 13.512,26.747 13.608,25.982 L14.746,17.878 L19.539,24.544 C19.973,25.167 20.891,25.228 21.406,24.667 L26.308,19.333 C26.836,18.758 26.651,17.851 25.938,17.517 L18.462,13.830 L26.140,11.488 C26.881,11.280 27.225,10.448 26.839,9.797 ZM14.811,14.476 L14.488,17.089 L12.940,14.867 L10.289,15.338 L11.981,13.256 L10.698,10.903 L13.280,11.835 L15.151,9.913 L15.005,12.581 L17.493,13.735 L14.811,14.476 Z"/>
</svg>