<svg 
 xmlns="http://www.w3.org/2000/svg"
 xmlns:xlink="http://www.w3.org/1999/xlink"
 width="20px" height="23px">
<path fill-rule="evenodd"  fill="rgb(25, 28, 33)"
 d="M16.096,11.882 C16.128,15.191 19.131,16.289 19.165,16.306 C19.137,16.381 18.684,17.875 17.580,19.417 C16.626,20.749 15.638,22.076 14.079,22.103 C12.546,22.131 12.054,21.234 10.301,21.234 C8.549,21.234 8.003,22.076 6.552,22.131 C5.049,22.185 3.902,20.693 2.940,19.364 C0.974,16.648 -0.528,11.689 1.490,8.343 C2.491,6.681 4.281,5.628 6.224,5.600 C7.702,5.575 9.097,6.553 10.000,6.553 C10.904,6.553 12.600,5.378 14.380,5.550 C15.127,5.580 17.222,5.837 18.566,7.716 C18.459,7.782 16.066,9.111 16.096,11.882 L16.096,11.882 ZM9.820,5.301 C9.646,4.044 10.294,2.737 11.035,1.916 C11.860,0.991 13.254,0.304 14.404,0.260 C14.552,1.541 14.011,2.826 13.214,3.752 C12.414,4.676 11.104,5.396 9.820,5.301 L9.820,5.301 Z"/>
</svg>