<svg 
 xmlns="http://www.w3.org/2000/svg"
 xmlns:xlink="http://www.w3.org/1999/xlink"
 width="21px" height="21px">
<path fill-rule="evenodd"  fill="rgb(25, 28, 33)"
 d="M19.676,7.454 C20.006,7.454 20.287,7.552 20.516,7.747 C20.747,7.942 20.862,8.181 20.862,8.465 L20.862,14.429 C20.862,14.698 20.747,14.931 20.516,15.127 C20.287,15.322 20.006,15.420 19.676,15.420 L19.288,15.420 C18.958,15.420 18.678,15.322 18.447,15.127 C18.217,14.931 18.102,14.698 18.102,14.429 L18.102,8.465 C18.102,8.181 18.217,7.942 18.447,7.747 C18.678,7.552 18.958,7.454 19.288,7.454 L19.676,7.454 L19.676,7.454 ZM2.186,7.454 C2.517,7.454 2.790,7.552 3.005,7.747 C3.221,7.942 3.329,8.181 3.329,8.465 L3.329,14.429 C3.329,14.698 3.221,14.931 3.005,15.127 C2.790,15.322 2.517,15.420 2.186,15.420 L1.797,15.420 C1.467,15.420 1.186,15.322 0.957,15.127 C0.727,14.931 0.612,14.698 0.612,14.429 L0.612,8.465 C0.612,8.181 0.727,7.942 0.957,7.747 C1.186,7.552 1.467,7.454 1.797,7.454 L2.186,7.454 L2.186,7.454 ZM14.091,2.763 C14.350,2.870 14.619,3.019 14.899,3.208 C15.179,3.396 15.449,3.619 15.708,3.875 C15.967,4.131 16.193,4.410 16.387,4.714 C16.582,5.017 16.721,5.337 16.808,5.674 L4.558,5.674 C4.788,4.960 5.152,4.373 5.648,3.915 C6.143,3.457 6.643,3.093 7.146,2.823 L6.046,1.206 C6.017,1.179 6.014,1.128 6.035,1.054 C6.056,0.980 6.132,0.903 6.262,0.822 C6.377,0.728 6.485,0.683 6.586,0.691 C6.686,0.697 6.751,0.713 6.780,0.741 L7.901,2.399 C8.304,2.223 8.728,2.089 9.174,1.994 C9.619,1.900 10.079,1.853 10.554,1.853 C11.531,1.853 12.443,2.041 13.293,2.419 L14.436,0.741 C14.463,0.713 14.518,0.700 14.597,0.700 C14.676,0.700 14.795,0.741 14.953,0.822 C15.097,0.889 15.179,0.950 15.202,1.004 C15.222,1.058 15.219,1.098 15.191,1.125 L14.091,2.763 L14.091,2.763 ZM8.072,4.501 C8.259,4.501 8.418,4.441 8.547,4.320 C8.677,4.198 8.741,4.050 8.741,3.875 C8.741,3.700 8.677,3.551 8.547,3.429 C8.418,3.308 8.259,3.248 8.072,3.248 C7.886,3.248 7.729,3.308 7.599,3.429 C7.470,3.551 7.404,3.700 7.404,3.875 C7.404,4.050 7.470,4.198 7.599,4.320 C7.729,4.441 7.886,4.501 8.072,4.501 L8.072,4.501 ZM13.379,4.421 C13.566,4.421 13.723,4.360 13.854,4.238 C13.983,4.117 14.047,3.969 14.047,3.794 C14.047,3.619 13.983,3.470 13.854,3.349 C13.723,3.227 13.566,3.167 13.379,3.167 C13.191,3.167 13.033,3.227 12.904,3.349 C12.775,3.470 12.710,3.619 12.710,3.794 C12.710,3.969 12.775,4.117 12.904,4.238 C13.033,4.360 13.191,4.421 13.379,4.421 L13.379,4.421 ZM16.808,6.947 L16.830,16.046 C16.830,16.343 16.725,16.592 16.517,16.795 C16.308,16.997 16.053,17.098 15.751,17.098 L15.449,17.098 L15.449,19.928 C15.449,20.198 15.345,20.434 15.136,20.636 C14.928,20.837 14.673,20.940 14.371,20.940 L13.746,20.940 C13.458,20.940 13.210,20.837 13.001,20.636 C12.793,20.434 12.689,20.198 12.689,19.928 L12.689,17.098 L8.721,17.098 L8.721,19.928 C8.721,20.198 8.615,20.434 8.408,20.636 C8.199,20.837 7.944,20.940 7.642,20.940 L7.016,20.940 C6.728,20.940 6.480,20.837 6.273,20.636 C6.064,20.434 5.960,20.198 5.960,19.928 L5.960,17.098 L5.723,17.098 C5.421,17.098 5.165,16.997 4.958,16.795 C4.748,16.592 4.645,16.343 4.645,16.046 L4.645,6.947 L16.808,6.947 L16.808,6.947 Z"/>
</svg>