<svg 
 xmlns="http://www.w3.org/2000/svg"
 xmlns:xlink="http://www.w3.org/1999/xlink"
 width="16px" height="13px">
<path fill-rule="evenodd"  fill="rgb(244, 245, 250)"
 d="M15.372,5.742 L12.284,5.742 C11.934,5.742 11.649,6.027 11.649,6.379 L11.649,6.578 C11.649,6.930 11.934,7.215 12.284,7.215 L15.372,7.215 C15.723,7.215 16.006,6.930 16.006,6.578 L16.006,6.379 C16.006,6.028 15.723,5.742 15.372,5.742 L15.372,5.742 ZM11.060,3.285 C11.224,3.574 11.550,3.646 11.785,3.447 L14.324,1.306 C14.562,1.106 14.620,0.710 14.457,0.419 L14.364,0.254 C14.199,-0.035 13.874,-0.107 13.638,0.092 L11.098,2.233 C10.861,2.433 10.803,2.831 10.967,3.120 L11.060,3.285 ZM14.324,11.663 L11.785,9.521 C11.548,9.321 11.224,9.395 11.060,9.683 L10.967,9.847 C10.803,10.137 10.863,10.534 11.098,10.735 L13.638,12.876 C13.876,13.076 14.199,13.002 14.364,12.715 L14.457,12.550 C14.622,12.261 14.562,11.863 14.324,11.663 L14.324,11.663 ZM8.209,0.272 C7.248,1.037 5.238,2.107 3.792,3.137 L3.789,3.139 C3.772,3.149 3.756,3.206 3.739,3.216 C3.567,3.311 3.492,3.577 2.561,3.577 L0.751,3.577 C0.287,3.579 -0.002,3.796 -0.002,4.288 L-0.002,8.656 C-0.002,9.148 0.262,9.390 0.751,9.390 L2.571,9.390 C3.494,9.392 3.570,9.656 3.740,9.752 C3.757,9.761 3.773,9.819 3.791,9.828 L3.792,9.830 C5.193,10.860 7.216,12.015 8.209,12.749 C8.508,12.970 9.502,13.358 9.502,11.993 L9.502,0.970 C9.502,-0.397 8.500,0.040 8.209,0.272 L8.209,0.272 Z"/>
</svg>